<svg width="293" height="259" viewBox="0 0 293 259" fill="none" xmlns="http://www.w3.org/2000/svg">
<path d="M217.422 9.75708H166.33V54.2601H217.422V9.75708Z" fill="#EBEBEB"/>
<path d="M211.584 14.843H172.167V49.1743H211.584V14.843Z" fill="white"/>
<path d="M173.705 14.843H172.167V49.1743H173.705V14.843Z" fill="#DBDBDB"/>
<path d="M218.96 9.75708H217.422V54.2601H218.96V9.75708Z" fill="#DBDBDB"/>
<path d="M183.265 36.3314C187.009 43.7507 201.405 42.387 202.288 33.2474C202.734 28.6369 199.095 23.0318 191.977 23.0381H191.942C183.572 23.6011 180.691 31.2456 183.265 36.3314Z" fill="#EBEBEB"/>
<path d="M182.577 21.1805C183.374 21.2557 184.115 21.5866 184.664 22.1126C185.241 22.6005 185.889 23.5013 185.638 24.2332C185.575 24.4209 185.443 24.3834 185.221 24.3771C184.52 24.2815 183.88 23.9669 183.412 23.4888C182.884 23.0555 182.406 22.5755 181.985 22.0563C181.926 21.9657 181.895 21.8624 181.896 21.7573C181.897 21.6522 181.929 21.5493 181.99 21.4595C182.051 21.3697 182.137 21.2964 182.24 21.2472C182.344 21.1981 182.46 21.175 182.577 21.1805Z" fill="#EBEBEB"/>
<path d="M188.463 18.3963C189.192 18.8204 189.718 19.4742 189.938 20.2293C190.161 20.8173 190.349 21.7056 189.855 22.2123C189.801 22.2591 189.732 22.2893 189.659 22.2983C189.585 22.3073 189.509 22.2947 189.444 22.2624C188.853 22.0059 188.588 21.2302 188.359 20.7235C188.024 20.105 187.827 19.4333 187.781 18.7467C187.783 18.6757 187.806 18.6064 187.846 18.5455C187.887 18.4846 187.944 18.4341 188.012 18.3989C188.081 18.3637 188.158 18.3449 188.237 18.3445C188.316 18.344 188.394 18.3619 188.463 18.3963Z" fill="#EBEBEB"/>
<path d="M179 25.2149C180.322 24.9584 182.124 25.3525 182.625 26.6099C182.651 26.6995 182.637 26.7945 182.587 26.8751C182.536 26.9556 182.453 27.0153 182.354 27.0416C181.837 27.1595 181.29 27.1177 180.802 26.9227C180.204 26.7601 179.585 26.7225 179 26.5161C178.416 26.3097 178.207 25.3713 179 25.2149Z" fill="#EBEBEB"/>
<path d="M194.934 19.7161C195.217 19.183 195.623 18.7098 196.124 18.3273C196.367 18.1084 196.687 18.3273 196.639 18.6151C196.555 19.1468 196.569 19.6973 196.472 20.2291C196.429 20.7602 196.278 21.2797 196.026 21.7617C195.952 21.8819 195.84 21.979 195.703 22.04C195.566 22.1011 195.412 22.1233 195.261 22.1036C195.11 22.0839 194.969 22.0232 194.857 21.9298C194.745 21.8363 194.668 21.7144 194.635 21.5803C194.514 20.9461 194.619 20.2937 194.934 19.7161Z" fill="#EBEBEB"/>
<path d="M178.645 29.7693C179.542 29.7716 180.406 30.075 181.067 30.62C181.113 30.6639 181.148 30.7165 181.168 30.7739C181.189 30.8314 181.196 30.8923 181.187 30.9522C181.178 31.0121 181.155 31.0695 181.118 31.1203C181.082 31.171 181.033 31.2138 180.976 31.2456C180.196 31.5422 179.333 31.6143 178.506 31.4521C177.908 31.4083 176.551 31.4521 176.621 30.6326C176.69 29.8131 177.977 29.7192 178.645 29.7693Z" fill="#EBEBEB"/>
<path d="M177.852 36.4C178.199 35.8913 178.688 35.473 179.27 35.1866C179.852 34.9002 180.508 34.7556 181.171 34.7673C181.251 34.7706 181.329 34.7917 181.398 34.8287C181.467 34.8657 181.525 34.9175 181.566 34.9794C181.608 35.0413 181.631 35.1115 181.635 35.1836C181.639 35.2557 181.623 35.3276 181.589 35.3928C181.212 35.8786 180.714 36.2775 180.133 36.5569C179.553 36.8363 178.907 36.9883 178.249 37.0005C178.172 36.9971 178.097 36.9766 178.031 36.9409C177.966 36.9052 177.911 36.8554 177.871 36.7959C177.832 36.7365 177.81 36.6692 177.806 36.6001C177.803 36.531 177.819 36.4623 177.852 36.4Z" fill="#EBEBEB"/>
<path d="M180.183 42.0928C180.47 41.4535 180.952 40.9004 181.575 40.4976C182.182 39.9818 182.948 39.6418 183.773 39.5217C184.045 39.5217 184.177 39.797 184.1 40.0284C183.935 40.3799 183.729 40.7152 183.488 41.0293C183.262 41.3638 182.978 41.6637 182.646 41.9177C182.368 42.1495 182.038 42.3253 181.678 42.4332C181.318 42.5411 180.936 42.5786 180.559 42.5432C180.5 42.5381 180.443 42.522 180.392 42.496C180.341 42.4701 180.296 42.4348 180.261 42.3924C180.225 42.35 180.2 42.3015 180.187 42.2499C180.173 42.1984 180.172 42.1449 180.183 42.0928Z" fill="#EBEBEB"/>
<path d="M188.373 41.8178C188.406 41.7699 188.452 41.7305 188.507 41.7031C188.561 41.6757 188.623 41.6614 188.686 41.6614C188.748 41.6614 188.81 41.6757 188.865 41.7031C188.92 41.7305 188.966 41.7699 188.999 41.8178C189.293 42.3835 189.347 43.0264 189.152 43.6257C189.072 44.3604 188.733 45.053 188.185 45.6025C188.094 45.6812 187.982 45.7376 187.859 45.7662C187.737 45.7948 187.608 45.7946 187.486 45.7657C187.364 45.7368 187.252 45.6802 187.161 45.6012C187.07 45.5222 187.003 45.4236 186.967 45.3147C186.591 44.0511 187.614 42.7811 188.373 41.8178Z" fill="#EBEBEB"/>
<path d="M195.08 41.6299C195.117 41.5745 195.167 41.5273 195.226 41.4918C195.286 41.4563 195.354 41.4335 195.425 41.425C195.496 41.4166 195.568 41.4228 195.636 41.4431C195.704 41.4634 195.766 41.4974 195.818 41.5424C196.36 42.0547 196.695 42.7153 196.771 43.4191C196.847 44.0446 197.042 44.8579 196.701 45.4146C196.647 45.496 196.573 45.5652 196.485 45.6172C196.397 45.6691 196.297 45.7023 196.192 45.7144C196.088 45.7264 195.982 45.717 195.882 45.6867C195.782 45.6565 195.691 45.6062 195.616 45.5397C195.108 45.1519 194.92 44.2323 194.788 43.663C194.599 42.9763 194.703 42.2509 195.08 41.6299Z" fill="#EBEBEB"/>
<path d="M200.806 38.6772C201.098 38.7002 201.382 38.7679 201.648 38.8774C201.932 39.034 202.202 39.2097 202.455 39.4029C202.872 39.7392 203.316 40.0466 203.784 40.3225C203.888 40.3798 203.969 40.466 204.013 40.5679C204.058 40.6698 204.065 40.782 204.033 40.8878C204.001 40.9935 203.931 41.087 203.835 41.1543C203.739 41.2215 203.621 41.2589 203.499 41.2608C203.126 41.3111 202.745 41.2938 202.38 41.2101C202.014 41.1263 201.671 40.9776 201.37 40.7729C201.043 40.5571 200.764 40.2875 200.549 39.9784C200.376 39.682 200.294 39.3494 200.312 39.015C200.314 38.9614 200.328 38.9087 200.356 38.8609C200.383 38.8132 200.421 38.7715 200.469 38.739C200.516 38.7066 200.571 38.6841 200.63 38.6734C200.688 38.6627 200.749 38.664 200.806 38.6772Z" fill="#EBEBEB"/>
<path d="M203.812 33.7477C204.231 33.6566 204.668 33.6526 205.088 33.7361C205.509 33.8195 205.903 33.9883 206.241 34.2294C206.707 34.5672 207.319 35.2365 207.09 35.8121C207.071 35.8752 207.034 35.9327 206.983 35.9789C206.932 36.0251 206.868 36.0582 206.797 36.0748C206.249 36.0769 205.709 35.9565 205.225 35.7245C204.499 35.6021 203.839 35.2678 203.346 34.7736C203.287 34.681 203.251 34.5773 203.243 34.4706C203.235 34.3639 203.254 34.2569 203.299 34.1578C203.344 34.0588 203.414 33.9703 203.503 33.8992C203.592 33.8281 203.698 33.7763 203.812 33.7477Z" fill="#EBEBEB"/>
<path d="M203.047 28.6932C203.32 28.3764 203.719 28.1677 204.16 28.1114C204.861 27.9436 205.575 27.8223 206.296 27.7486C206.679 27.6923 207.138 28.0489 206.86 28.3742C206.48 28.9251 205.944 29.3761 205.308 29.6816C204.612 29.9756 203.604 30.3072 203.075 29.6065C202.972 29.473 202.915 29.3157 202.91 29.1536C202.905 28.9915 202.953 28.8315 203.047 28.6932Z" fill="#EBEBEB"/>
<path d="M199.478 24.045C199.721 22.8314 201.161 22.2809 202.309 21.9619C202.79 21.8305 203.005 22.3623 202.755 22.6625C202.504 22.9628 202.177 23.3569 201.871 23.6885C201.565 24.02 201.405 24.3516 201.175 24.6831C201.065 24.8628 200.885 24.9996 200.67 25.0672C200.454 25.1348 200.218 25.1284 200.008 25.0493C199.797 24.9701 199.627 24.8238 199.529 24.6385C199.431 24.4531 199.413 24.2418 199.478 24.045Z" fill="#EBEBEB"/>
<path d="M189.312 29.3687C189.312 29.7065 189.006 29.0497 188.616 29.0497C188.226 29.0497 187.92 29.6753 187.92 29.3687C187.92 29.2028 187.994 29.0437 188.124 28.9264C188.255 28.8091 188.432 28.7432 188.616 28.7432C188.801 28.7432 188.978 28.8091 189.108 28.9264C189.239 29.0437 189.312 29.2028 189.312 29.3687Z" fill="#A6A6A6"/>
<path d="M196.437 29.3687C196.437 29.7065 196.131 29.0559 195.741 29.0559C195.351 29.0559 195.045 29.6815 195.045 29.3687C195.045 29.2028 195.119 29.0437 195.249 28.9264C195.38 28.8091 195.557 28.7432 195.741 28.7432C195.926 28.7432 196.103 28.8091 196.233 28.9264C196.364 29.0437 196.437 29.2028 196.437 29.3687Z" fill="#A6A6A6"/>
<path d="M187.343 31.0201C187.344 31.3099 187.25 31.5935 187.072 31.835C186.894 32.0766 186.64 32.2652 186.343 32.3769C186.045 32.4887 185.718 32.5186 185.401 32.4628C185.085 32.407 184.794 32.2681 184.566 32.0636C184.337 31.8592 184.182 31.5983 184.118 31.3142C184.055 31.0301 184.087 30.7354 184.21 30.4676C184.333 30.1998 184.542 29.9708 184.809 29.8096C185.077 29.6485 185.392 29.5625 185.715 29.5625C186.145 29.5625 186.558 29.7159 186.864 29.989C187.169 30.2622 187.341 30.6329 187.343 31.0201Z" fill="white"/>
<path d="M200.591 31.0201C200.592 31.3099 200.498 31.5935 200.32 31.835C200.142 32.0766 199.888 32.2652 199.591 32.3769C199.293 32.4887 198.966 32.5186 198.649 32.4628C198.333 32.407 198.042 32.2681 197.814 32.0636C197.585 31.8592 197.43 31.5983 197.366 31.3142C197.303 31.0301 197.335 30.7354 197.458 30.4676C197.581 30.1998 197.789 29.9708 198.057 29.8096C198.325 29.6485 198.64 29.5625 198.963 29.5625C199.393 29.5625 199.806 29.7159 200.111 29.989C200.417 30.2622 200.589 30.6329 200.591 31.0201Z" fill="white"/>
<path d="M190.877 29.5879C191.01 29.7988 191.205 29.9722 191.441 30.0883C191.661 30.1745 191.897 30.2189 192.137 30.2189C192.376 30.2189 192.613 30.1745 192.833 30.0883C193.069 29.9735 193.267 29.8026 193.403 29.5941C193.417 29.7386 193.392 29.8838 193.33 30.0177C193.268 30.1515 193.172 30.2702 193.048 30.3636C192.79 30.5535 192.464 30.6534 192.13 30.6451C191.795 30.6516 191.469 30.5495 191.211 30.3573C191.092 30.2617 191 30.1422 190.942 30.0085C190.884 29.8748 190.862 29.7307 190.877 29.5879Z" fill="#A6A6A6"/>
<path d="M282.451 53.9414H231.359V98.4444H282.451V53.9414Z" fill="#EBEBEB"/>
<path d="M276.613 59.0271H237.197V93.3584H276.613V59.0271Z" fill="white"/>
<path d="M238.734 59.0271H237.197V93.3584H238.734V59.0271Z" fill="#DBDBDB"/>
<path d="M283.989 53.9414H282.451V98.4444H283.989V53.9414Z" fill="#DBDBDB"/>
<path d="M271.743 77.8131C270.705 75.4724 269.03 73.4033 266.872 71.7951C265.601 70.8112 264.112 70.0823 262.503 69.6573C260.894 69.2322 259.202 69.1208 257.542 69.3304C256.525 69.4565 255.53 69.6939 254.577 70.0373C249.143 71.9953 247.021 76.9186 246.541 78.6827C246.026 78.6184 245.52 78.5051 245.031 78.3448C244.808 78.1447 247.272 68.6673 257.159 67.4412C257.678 67.3747 258.2 67.335 258.724 67.3223C261.44 67.2665 264.104 67.9968 266.322 69.4055C270.344 71.9077 272.508 75.8676 272.8 77.0499C272.856 77.2876 272.438 77.5379 271.743 77.8131Z" fill="#A6A6A6"/>
<path d="M271.743 77.8128C271.289 77.9874 270.824 78.1378 270.351 78.2632C269.412 76.3147 267.983 74.5887 266.176 73.2211C265.049 72.3495 263.728 71.7043 262.302 71.3289C260.875 70.9534 259.375 70.8564 257.903 71.0442C256.832 71.1725 255.789 71.4446 254.807 71.8511C250.674 73.5527 248.837 77.1998 248.253 78.9514L246.597 78.6824C247.077 76.9183 249.199 71.995 254.633 70.037C255.585 69.6936 256.581 69.4562 257.597 69.3301C259.249 69.1278 260.93 69.2429 262.529 69.6678C264.128 70.0926 265.608 70.8176 266.872 71.7948C269.03 73.403 270.705 75.4721 271.743 77.8128Z" fill="#C7C7C7"/>
<path d="M270.351 78.2635C269.812 78.4155 269.261 78.5305 268.702 78.6076C267.748 76.893 266.341 75.4151 264.604 74.3037C262.74 73.1187 260.438 72.6298 258.182 72.9399C257.497 73.0268 256.826 73.1799 256.178 73.3966C252.581 74.6102 250.834 77.5003 250.138 79.2332L248.218 78.9516C248.802 77.2 250.639 73.553 254.772 71.8514C255.754 71.4448 256.797 71.1728 257.869 71.0444C259.346 70.852 260.852 70.9468 262.285 71.3223C263.718 71.6979 265.045 72.3455 266.176 73.2214C267.983 74.589 269.412 76.315 270.351 78.2635Z" fill="#DBDBDB"/>
<path d="M268.702 78.6074C268.525 78.6536 268.337 78.6536 268.16 78.6074C267.916 78.4448 265.989 75.9863 263.15 74.7351C261.977 74.1852 260.656 73.9404 259.337 74.0282C258.878 74.0634 258.424 74.1367 257.98 74.2472C253.77 75.3107 252.281 79.4394 251.718 79.4394C251.6 79.4394 250.966 79.3581 250.131 79.2392C250.827 77.5064 252.574 74.6163 256.171 73.4027C256.819 73.186 257.491 73.0329 258.175 72.946C260.431 72.6359 262.733 73.1248 264.597 74.3097C266.336 75.4186 267.746 76.8944 268.702 78.6074Z" fill="#EBEBEB"/>
<path d="M274.783 79.3393C274.813 79.7644 274.744 80.1903 274.582 80.5904C274.281 81.3358 273.677 81.9507 272.891 82.3107C270.803 83.3304 269.057 81.6039 269.057 81.6039C268.78 81.9193 268.435 82.1811 268.043 82.3735C267.651 82.5659 267.22 82.685 266.775 82.7236C266.316 82.734 265.865 82.6203 265.479 82.3972C265.093 82.1741 264.791 81.852 264.611 81.4725C264.611 81.4725 263.289 81.1597 263.275 80.2213C263.275 78.9702 264.833 79.039 264.833 79.039C264.833 79.039 264.576 76.837 266.385 76.274C266.944 76.1024 267.551 76.1024 268.111 76.274C268.585 76.4103 269.011 76.6588 269.342 76.9934C269.465 76.5285 269.748 76.1106 270.152 75.8003C270.556 75.4899 271.06 75.3031 271.59 75.2668C272.981 75.223 273.851 76.6931 273.851 76.6931C274.178 76.6481 274.512 76.697 274.805 76.833C275.099 76.9689 275.337 77.1849 275.486 77.4501C275.625 77.7899 275.631 78.1621 275.503 78.5054C275.375 78.8488 275.122 79.1428 274.783 79.3393Z" fill="#EBEBEB"/>
<path d="M242.443 77.9384C242.608 77.3266 242.967 76.7712 243.478 76.3402C243.988 75.9091 244.627 75.621 245.316 75.5112C247.759 75.0858 248.872 77.2628 248.872 77.2628C249.252 77.0257 249.682 76.8603 250.135 76.7765C250.588 76.6926 251.056 76.692 251.509 76.7748C251.965 76.8929 252.371 77.1303 252.675 77.4568C252.98 77.7832 253.17 78.1839 253.221 78.6077C253.221 78.6077 254.424 79.2708 254.118 80.2092C253.715 81.4603 252.184 80.9474 252.184 80.9474C252.184 80.9474 251.69 83.1994 249.707 83.2557C249.098 83.2874 248.495 83.1331 247.995 82.8178C247.574 82.5505 247.237 82.1909 247.014 81.7731C246.737 82.1949 246.318 82.5272 245.819 82.7226C245.319 82.9181 244.763 82.9667 244.231 82.8616C242.839 82.5175 242.478 80.8348 242.478 80.8348C242.134 80.7963 241.813 80.6593 241.562 80.4441C241.311 80.229 241.145 79.947 241.086 79.6399C241.057 79.2588 241.177 78.8806 241.424 78.5701C241.672 78.2596 242.032 78.0363 242.443 77.9384Z" fill="#EBEBEB"/>
<path d="M255.9 72.0013C255.9 72.3454 255.593 71.6823 255.204 71.6823C254.814 71.6823 254.508 72.3454 254.508 72.0013C254.508 71.8354 254.581 71.6763 254.712 71.559C254.842 71.4416 255.019 71.3757 255.204 71.3757C255.388 71.3757 255.565 71.4416 255.696 71.559C255.826 71.6763 255.9 71.8354 255.9 72.0013Z" fill="#A6A6A6"/>
<path d="M263.025 72.0013C263.025 72.3454 262.718 71.6948 262.329 71.6948C261.939 71.6948 261.633 72.3203 261.633 72.0013C261.633 71.8354 261.706 71.6763 261.837 71.559C261.967 71.4416 262.144 71.3757 262.329 71.3757C262.513 71.3757 262.69 71.4416 262.821 71.559C262.951 71.6763 263.025 71.8354 263.025 72.0013Z" fill="#A6A6A6"/>
<path d="M253.924 73.628C253.925 73.9178 253.831 74.2014 253.653 74.4429C253.474 74.6845 253.221 74.8731 252.923 74.9848C252.626 75.0966 252.298 75.1265 251.982 75.0707C251.666 75.0149 251.375 74.876 251.147 74.6715C250.918 74.4671 250.762 74.2063 250.699 73.9221C250.636 73.638 250.667 73.3434 250.791 73.0755C250.914 72.8077 251.122 72.5787 251.39 72.4176C251.658 72.2564 251.973 72.1704 252.295 72.1704C252.726 72.1704 253.139 72.3238 253.444 72.5969C253.749 72.8701 253.922 73.2408 253.924 73.628Z" fill="white"/>
<path d="M267.171 73.628C267.173 73.918 267.078 74.2019 266.9 74.4436C266.721 74.6853 266.467 74.8739 266.169 74.9854C265.872 75.097 265.544 75.1265 265.227 75.0703C264.911 75.014 264.62 74.8744 264.392 74.6693C264.164 74.4642 264.009 74.2028 263.946 73.9183C263.883 73.6338 263.916 73.3389 264.04 73.0712C264.164 72.8034 264.374 72.5749 264.643 72.4145C264.912 72.2541 265.228 72.1692 265.55 72.1704C265.98 72.1704 266.392 72.324 266.697 72.5973C267.001 72.8707 267.171 73.2414 267.171 73.628Z" fill="white"/>
<path d="M257.458 72.1951C257.59 72.406 257.785 72.5793 258.022 72.6955C258.239 72.7893 258.477 72.8364 258.717 72.8331C258.958 72.8346 259.196 72.7876 259.413 72.6955C259.648 72.5778 259.843 72.4048 259.977 72.1951C259.991 72.3389 259.966 72.4837 259.906 72.6174C259.845 72.7512 259.75 72.8701 259.629 72.9645C259.369 73.1581 259.041 73.2603 258.704 73.2523C258.368 73.257 258.042 73.1526 257.785 72.9583C257.668 72.8626 257.578 72.7439 257.521 72.6114C257.465 72.4789 257.443 72.3364 257.458 72.1951Z" fill="#A6A6A6"/>
<path d="M32.1039 151.08L22.9751 151.249L18.3411 151.324C16.7895 151.324 15.2309 151.324 13.6793 151.355H13.3731V151.08L13.3314 144.08V143.76H13.6793L22.8916 143.798C25.967 143.798 29.0355 143.867 32.1039 143.898H32.2987V144.067C32.2987 145.249 32.2361 146.432 32.2083 147.602L32.1039 151.08ZM32.1039 151.08L32.0065 147.539C32.0065 146.375 31.93 145.224 31.9161 144.08L32.1039 144.248C29.0355 144.28 25.967 144.349 22.8916 144.349L13.6793 144.392L14.0272 144.08V151.08L13.714 150.798C15.2309 150.798 16.7477 150.798 18.2715 150.829L22.8498 150.905L32.1039 151.08Z" fill="#EBEBEB"/>
<path d="M21.827 159.906L12.6982 160.075L8.06417 160.15C6.51255 160.15 4.95396 160.15 3.40234 160.182H3.09619V159.906L3.05444 152.906V152.606H3.40234L12.6147 152.643C15.6831 152.643 18.7585 152.712 21.827 152.744H22.0218V152.912C22.0218 154.095 21.9662 155.277 21.9314 156.447L21.827 159.906ZM21.827 159.906L21.7296 156.359C21.6948 155.196 21.6531 154.045 21.6391 152.9L21.827 153.069C18.7585 153.1 15.6831 153.169 12.6147 153.169L3.40234 153.232L3.75024 152.925L3.71545 159.925L3.40234 159.644C4.91917 159.644 6.43601 159.644 7.9598 159.644L12.5381 159.719L21.827 159.906Z" fill="#EBEBEB"/>
<path d="M224.137 77.7316L215.008 77.9068L210.374 77.9756C208.822 78.0069 207.264 77.9756 205.712 78.0131H205.406V77.7316L205.364 70.7315V70.4187H205.712L214.924 70.4625C218 70.4625 221.068 70.5313 224.137 70.5626H224.331V70.7315C224.331 71.9201 224.269 73.1024 224.234 74.2722L224.137 77.7316ZM224.137 77.7316L224.039 74.1971C224.039 73.0273 223.963 71.8763 223.949 70.7315L224.137 70.9004C221.068 70.9379 218 71.0005 214.924 71.0067L205.712 71.0443L206.06 70.7315L206.025 77.7316L205.712 77.4564C207.229 77.4564 208.746 77.4564 210.269 77.4564L214.848 77.5252L224.137 77.7316Z" fill="#EBEBEB"/>
<path d="M213.86 86.5583L204.731 86.7334L200.09 86.8022C198.545 86.8335 196.987 86.8022 195.435 86.8398H195.129V86.5583L195.094 79.5581V79.2454H195.442L204.654 79.2829C207.723 79.2829 210.798 79.358 213.867 79.3892H214.061V79.5581C214.061 80.7467 214.006 81.9291 213.971 83.0989L213.86 86.5583ZM213.86 86.5583L213.762 83.0238C213.727 81.854 213.686 80.7029 213.672 79.5581L213.86 79.7271C210.791 79.7646 207.716 79.8271 204.647 79.8334L195.435 79.8709L195.783 79.5581L195.748 86.5583L195.435 86.283C196.952 86.283 198.469 86.283 199.992 86.3143L204.564 86.3831L213.86 86.5583Z" fill="#EBEBEB"/>
<path d="M286.814 159.906L277.678 160.075L273.044 160.15C271.499 160.15 269.941 160.15 268.389 160.182H268.076V159.906L268.041 152.906V152.606H268.389L277.601 152.643C280.67 152.643 283.745 152.712 286.814 152.744H287.002V152.912C287.002 154.095 286.946 155.277 286.911 156.447L286.814 159.906ZM286.814 159.906L286.716 156.366C286.716 155.202 286.633 154.051 286.626 152.906L286.814 153.075C283.745 153.106 280.67 153.175 277.601 153.175L268.389 153.213L268.737 152.906L268.695 159.906L268.389 159.625C269.906 159.625 271.423 159.625 272.94 159.625L277.518 159.7L286.814 159.906Z" fill="#EBEBEB"/>
<path d="M276.537 10.727L267.401 10.9021L262.767 10.9709C261.222 10.9709 259.664 10.9709 258.112 11.0085H257.827V10.727V3.72685V3.41406H258.182L267.394 3.4516C270.463 3.4516 273.531 3.52667 276.606 3.55795H276.794V3.72059C276.794 4.90918 276.732 6.0915 276.704 7.25506L276.537 10.727ZM276.537 10.727L276.439 7.1925C276.405 6.02269 276.356 4.87164 276.342 3.72685L276.537 3.89575C273.461 3.89575 270.393 3.99584 267.325 4.0021L258.112 4.03963L258.46 3.72685L258.418 10.727L258.112 10.4455C259.629 10.4455 261.139 10.4455 262.663 10.483L267.241 10.5518L276.537 10.727Z" fill="#EBEBEB"/>
<path d="M286.814 19.5534L277.678 19.7285L273.044 19.7974C271.499 19.7974 269.941 19.7974 268.389 19.8349H268.076V19.5534L268.041 12.5533V12.2405H268.389L277.601 12.278C280.67 12.278 283.745 12.3531 286.814 12.3844H287.002V12.5533C287.002 13.7418 286.946 14.9242 286.911 16.0877L286.814 19.5534ZM286.814 19.5534L286.716 16.0189C286.716 14.8491 286.633 13.6981 286.626 12.5533L286.814 12.7222C283.745 12.7222 280.67 12.8223 277.601 12.8285L268.389 12.866L268.737 12.5533L268.695 19.5534L268.389 19.2719C269.906 19.2719 271.423 19.2719 272.94 19.3094L277.518 19.3782L286.814 19.5534Z" fill="#EBEBEB"/>
<path d="M21.827 10.7269L12.6982 10.902L8.03634 10.9709C6.48471 10.9709 4.92613 10.9709 3.37451 11.0084H3.09619V10.7269L3.05444 3.7205V3.40771H3.40234L12.6147 3.44525C15.6831 3.44525 18.7585 3.52032 21.827 3.5516H22.0218V3.7205C22.0218 4.90908 21.9662 6.09141 21.9314 7.25497L21.827 10.7269ZM21.827 10.7269L21.7296 7.19241C21.6948 6.0226 21.6531 4.87155 21.6391 3.72675L21.827 3.89566C18.7585 3.89566 15.6831 3.99575 12.6147 4.00201L3.40234 4.03954L3.75024 3.72675L3.71545 10.7269L3.40234 10.4454C4.91917 10.4454 6.43601 10.4454 7.9598 10.4829L12.5381 10.5517L21.827 10.7269Z" fill="#EBEBEB"/>
<path d="M164.66 141.677L155.545 141.846L150.911 141.921C149.359 141.921 147.808 141.921 146.249 141.953H145.943V141.677V134.677V134.358H146.291L155.503 134.396C158.579 134.396 161.647 134.465 164.723 134.496H164.91V134.665C164.91 135.847 164.848 137.029 164.82 138.199L164.66 141.677ZM164.66 141.677L164.556 138.137C164.556 136.973 164.479 135.822 164.465 134.677L164.66 134.846C161.584 134.846 158.516 134.946 155.441 134.946L146.228 134.984L146.576 134.677L146.541 141.677L146.228 141.396C147.752 141.396 149.262 141.396 150.786 141.427L155.364 141.502L164.66 141.677Z" fill="#EBEBEB"/>
<path d="M41.198 24.4141C41.198 24.3792 41.1826 24.3458 41.1552 24.3212C41.1278 24.2966 41.0906 24.2827 41.0519 24.2827C41.0131 24.2827 40.976 24.2966 40.9485 24.3212C40.9211 24.3458 40.9058 24.3792 40.9058 24.4141C40.4187 30.088 40.5857 35.812 40.6692 41.5046C40.7527 47.1973 40.5509 52.9088 40.8779 58.589C40.8779 58.6304 40.8962 58.6702 40.9289 58.6995C40.9615 58.7289 41.0057 58.7453 41.0519 58.7453C41.098 58.7453 41.1422 58.7289 41.1749 58.6995C41.2075 58.6702 41.2258 58.6304 41.2258 58.589C41.5528 52.9088 41.3511 47.1911 41.4346 41.5046C41.5181 35.8182 41.685 30.088 41.198 24.4141Z" fill="#C7C7C7"/>
<path d="M44.3847 63.2496C44.3847 66.6652 42.2208 67.8726 41.0519 67.8726C39.8829 67.8726 37.712 66.659 37.712 63.2496C37.712 59.8403 41.0519 54.3728 41.0519 54.3728C41.1562 54.548 44.3847 59.8903 44.3847 63.2496Z" fill="#EBEBEB"/>
<path d="M52.2263 24.99C52.2263 24.9502 52.2087 24.912 52.1774 24.8838C52.1461 24.8557 52.1036 24.8398 52.0593 24.8398C52.015 24.8398 51.9726 24.8557 51.9412 24.8838C51.9099 24.912 51.8923 24.9502 51.8923 24.99C51.3496 32.2779 51.607 39.6658 51.6558 46.9662C51.7045 54.2666 51.6558 61.6233 51.8645 68.9488C51.8732 68.9903 51.8978 69.0278 51.934 69.0548C51.9702 69.0818 52.0158 69.0966 52.0628 69.0966C52.1098 69.0966 52.1554 69.0818 52.1916 69.0548C52.2278 69.0278 52.2524 68.9903 52.2611 68.9488C52.435 61.6233 52.4281 54.2917 52.4698 46.9662C52.5116 39.6408 52.776 32.2966 52.2263 24.99Z" fill="#C7C7C7"/>
<path d="M55.3992 75.3231C55.3992 78.745 53.2283 79.9523 52.0594 79.9523C50.8904 79.9523 48.7265 78.7387 48.7265 75.3231C48.7265 71.9075 52.0594 66.4463 52.0594 66.4463C52.1707 66.6277 55.3992 71.9701 55.3992 75.3231Z" fill="#DBDBDB"/>
<path d="M64.1523 17.7334C64.1445 17.6996 64.124 17.6693 64.0942 17.6475C64.0644 17.6257 64.0272 17.6138 63.9888 17.6138C63.9504 17.6138 63.9132 17.6257 63.8834 17.6475C63.8536 17.6693 63.8331 17.6996 63.8253 17.7334C63.5887 29.319 63.38 40.9108 63.8949 52.4901C63.8949 52.5133 63.9051 52.5356 63.9234 52.552C63.9417 52.5684 63.9664 52.5777 63.9923 52.5777C64.0181 52.5777 64.0429 52.5684 64.0612 52.552C64.0794 52.5356 64.0897 52.5133 64.0897 52.4901C64.6046 40.9108 64.3958 29.319 64.1523 17.7334Z" fill="#C7C7C7"/>
<path d="M67.3251 56.212C67.3251 59.6277 65.1612 60.835 63.9922 60.835C62.8233 60.835 60.6594 59.6277 60.6594 56.212C60.6594 52.7964 63.9922 47.3352 63.9922 47.3352C64.0966 47.5104 67.3251 52.8527 67.3251 56.212Z" fill="#EBEBEB"/>
<path d="M76.2243 21.8057C76.2243 21.7841 76.2148 21.7634 76.1978 21.7482C76.1809 21.7329 76.1579 21.7244 76.1339 21.7244C76.1099 21.7244 76.0869 21.7329 76.0699 21.7482C76.0529 21.7634 76.0434 21.7841 76.0434 21.8057C75.5494 25.6029 75.7373 29.5315 75.7373 33.3475C75.7373 37.1634 75.7373 41.0482 75.7373 44.8955C75.786 52.5837 75.7373 60.2845 75.9182 67.979C75.9182 68.0255 75.9387 68.07 75.9752 68.1028C76.0118 68.1357 76.0613 68.1542 76.113 68.1542C76.1647 68.1542 76.2142 68.1357 76.2508 68.1028C76.2873 68.07 76.3078 68.0255 76.3078 67.979C76.5166 60.2845 76.44 52.5837 76.4887 44.8955C76.4887 41.1421 76.4887 37.3886 76.4887 33.6727C76.5444 29.7442 76.7462 25.7092 76.2243 21.8057Z" fill="#C7C7C7"/>
<path d="M79.4876 71.2819C79.4876 74.6975 77.3167 75.9048 76.1477 75.9048C74.9788 75.9048 72.8149 74.6975 72.8149 71.2819C72.8149 67.8663 76.1477 62.405 76.1477 62.405C76.2243 62.5614 79.4876 67.9038 79.4876 71.2819Z" fill="#DBDBDB"/>
<path d="M87.6005 22.4876C87.6005 22.4577 87.5873 22.4291 87.5638 22.408C87.5403 22.3869 87.5085 22.375 87.4753 22.375C87.4421 22.375 87.4102 22.3869 87.3867 22.408C87.3632 22.4291 87.35 22.4577 87.35 22.4876C86.8004 29.2625 87.1343 36.1563 87.1483 42.9437C87.1622 49.7312 86.856 56.6312 87.3848 63.4061C87.3848 63.4277 87.3944 63.4484 87.4113 63.4636C87.4283 63.4789 87.4513 63.4874 87.4753 63.4874C87.4993 63.4874 87.5223 63.4789 87.5392 63.4636C87.5562 63.4484 87.5657 63.4277 87.5657 63.4061C88.0945 56.6312 87.7884 49.7374 87.8023 42.9437C87.8162 36.15 88.1502 29.2375 87.6005 22.4876Z" fill="#C7C7C7"/>
<path d="M90.836 62.8307C90.836 66.2463 88.6721 67.4537 87.5032 67.4537C86.3342 67.4537 84.1703 66.2463 84.1703 62.8307C84.1703 59.4151 87.5032 53.9539 87.5032 53.9539C87.5797 54.129 90.836 59.4714 90.836 62.8307Z" fill="#EBEBEB"/>
<path d="M38.4357 15.8878C38.4357 15.8878 30.8585 17.4017 30.8585 23.6762C30.8585 29.9506 40.8431 29.3063 40.8431 29.3063C40.8431 29.3063 41.4485 34.7112 49.1509 36.663C56.8534 38.6148 62.3084 33.1973 62.3084 33.1973C63.0528 33.9918 63.9917 34.6205 65.0516 35.034C66.1116 35.4476 67.2636 35.6347 68.4175 35.5808C69.5764 35.5735 70.7103 35.2773 71.693 34.7251C72.6758 34.1729 73.4688 33.3863 73.9838 32.4529C73.9838 32.4529 78.4369 34.1857 82.7717 32.5593C84.0127 32.1024 85.1322 31.4147 86.0567 30.5415C86.9812 29.6682 87.6899 28.629 88.1363 27.4921C88.1363 27.4921 94.1549 28.1177 95.2404 23.1632C96.3258 18.2087 89.5836 16.6698 89.5836 16.6698C89.5836 16.6698 89.4444 8.57491 83.1823 6.2603C80.9098 5.44348 78.4592 5.10615 76.0189 5.27425C73.5787 5.44234 71.2139 6.11139 69.1063 7.22994C69.1063 7.22994 61.5222 -1.74699 50.2085 0.30488C38.8949 2.35675 38.4357 15.8878 38.4357 15.8878Z" fill="#EBEBEB"/>
<path d="M74.9927 16.9511C74.9927 16.8823 74.8814 16.9011 74.8745 16.9511C74.7075 17.9645 74.1787 21.8118 72.5366 21.8556C70.9919 21.8994 69.7534 18.5588 69.4264 17.3577C69.4264 17.3444 69.4205 17.3317 69.4101 17.3223C69.3996 17.3129 69.3855 17.3077 69.3707 17.3077C69.356 17.3077 69.3418 17.3129 69.3314 17.3223C69.3209 17.3317 69.3151 17.3444 69.3151 17.3577C69.3846 18.9279 70.4214 22.9878 72.794 22.5937C74.8884 22.3122 75.2293 18.1084 74.9927 16.9511Z" fill="white"/>
<path d="M51.1061 16.9511C51.1061 16.8823 51.2244 16.9011 51.2313 16.9511C51.3983 17.9645 51.9271 21.8118 53.5623 21.8556C55.1139 21.8994 56.3454 18.5588 56.6794 17.3577C56.6794 17.2952 56.7907 17.3202 56.7907 17.3577C56.7212 18.9279 55.6844 22.9878 53.3118 22.5937C51.2105 22.3122 50.8765 18.1084 51.1061 16.9511Z" fill="white"/>
<path d="M60.0052 19.5911C60.4467 19.9391 60.9353 20.2354 61.4595 20.4731C61.9468 20.6926 62.4804 20.8162 63.025 20.8359C63.5646 20.8497 64.0997 20.7445 64.5836 20.5294C65.1041 20.291 65.5749 19.9736 65.9752 19.5911C65.7756 20.1513 65.3782 20.6377 64.8432 20.9764C64.3083 21.3151 63.665 21.4876 63.0111 21.4678C62.3476 21.4499 61.7063 21.249 61.1742 20.8922C60.6589 20.5634 60.2545 20.1132 60.0052 19.5911Z" fill="white"/>
<path d="M0 208.494L36.2788 208.338L72.5575 208.288L145.108 208.182L217.659 208.282L253.937 208.338L290.216 208.494L253.937 208.645L217.659 208.701L145.108 208.807L72.5575 208.701L36.2788 208.645L0 208.494Z" fill="#263238"/>
<path d="M162.176 253.892C210.214 253.892 249.157 250.929 249.157 247.273C249.157 243.618 210.214 240.655 162.176 240.655C114.137 240.655 75.1946 243.618 75.1946 247.273C75.1946 250.929 114.137 253.892 162.176 253.892Z" fill="#EBEBEB"/>
<path d="M284.525 208.676C289.159 210.396 291.114 204.923 290.975 200.938C290.835 196.953 289.381 193.988 288.003 193.762C285.596 193.375 278.499 206.405 284.525 208.676Z" fill="#F4AE59"/>
<path d="M248.26 187.5C246.378 189.565 244.319 191.494 242.102 193.268C236.689 197.728 229.724 202.295 227.678 200.318C224.596 197.359 236.515 181.37 238.908 179.618C239.804 178.901 240.942 178.475 242.139 178.408C243.336 178.341 244.524 178.637 245.511 179.249C248.559 181.001 250.34 185.023 248.26 187.5Z" fill="#F4AE59"/>
<path opacity="0.1" d="M238.233 195.145C239.587 194.633 240.883 194.005 242.102 193.268C236.689 197.728 229.724 202.295 227.678 200.318C224.596 197.359 236.515 181.37 238.908 179.618C239.804 178.901 240.942 178.475 242.139 178.408C243.336 178.341 244.524 178.637 245.511 179.249C240.512 181.958 236.555 185.976 234.17 190.766C233.523 192.154 231.846 195.439 235.561 195.77C236.375 195.883 237.51 195.389 238.233 195.145Z" fill="#030402"/>
<path d="M255.148 210.941C252.678 212.548 225.925 220.574 220.289 218.372C214.653 216.17 212.718 202.596 214.632 202.596C216.545 202.596 219.663 205.792 220.136 205.848C220.407 205.886 224.853 203.565 229.146 201.551C232.166 200.137 235.109 198.867 236.48 198.673C248.044 197.015 254.758 205.067 255.559 209.02C255.739 209.94 255.614 210.634 255.148 210.941Z" fill="#F4AE59"/>
<path opacity="0.1" d="M255.148 210.94C252.678 212.548 225.925 220.574 220.289 218.372C214.653 216.17 212.718 202.595 214.632 202.595C216.545 202.595 219.663 205.792 220.136 205.848C220.407 205.886 224.853 203.565 229.146 201.551C226.945 203.003 225.087 204.834 223.677 206.937C220.31 212.504 229.209 215.113 233.648 215.175C237.906 215.251 241.998 214.068 245.971 212.773C249.248 211.697 252.45 210.444 255.559 209.02C255.739 209.939 255.614 210.634 255.148 210.94Z" fill="#030402"/>
<path d="M285.693 208.626C285.569 208.848 285.42 209.057 285.248 209.251C282.708 212.26 272.724 217.384 264.089 218.541C254.786 219.792 237.802 217.559 234.74 211.604C231.679 205.648 240.689 177.823 241.371 176.353L275.11 174.044L275.361 174.607C277.191 178.692 288.24 203.684 285.693 208.626Z" fill="#F4AE59"/>
<path opacity="0.1" d="M285.248 209.27C282.708 212.279 272.724 217.403 264.089 218.56C254.786 219.811 237.802 217.578 234.74 211.622C231.679 205.667 240.689 177.842 241.371 176.372L275.11 174.063L275.361 174.626C266.496 177.785 257.653 181.839 250.841 187.932C244.029 194.025 239.319 204.823 247.098 211.935C253.84 218.116 265.425 217.015 273.663 214.438C277.738 213.132 281.627 211.398 285.248 209.27Z" fill="#030402"/>
<path d="M283.453 211.479C282.841 212.286 279.932 214.607 276.015 217.359C267.526 223.365 254.313 231.534 249.575 231.259C242.617 230.859 234.879 217.084 236.904 216.427C238.929 215.77 243.598 218.11 244.127 218.01C244.509 217.935 250.138 211.873 254.473 207.932C255.658 206.75 256.997 205.7 258.46 204.804C272.731 197.785 285.394 208.908 283.453 211.479Z" fill="#F4AE59"/>
<path opacity="0.1" d="M276.015 217.359C267.526 223.364 254.313 231.534 249.575 231.259C242.617 230.859 234.879 217.084 236.904 216.427C238.929 215.77 243.598 218.11 244.127 218.01C244.509 217.934 250.138 211.873 254.473 207.932C251.899 210.803 249.262 214.294 248.712 217.909C247.766 224.165 256.366 224.847 261.167 223.965C266.705 222.945 271.451 220.299 276.015 217.359Z" fill="#030402"/>
<path d="M280.899 206.943C276.078 208.432 263.191 189.965 262.28 186.925C261.327 183.754 263.059 181.458 265.592 180.25C269.015 178.636 273.893 178.999 275.66 181.877C277.615 185.067 281.164 193.763 282.235 200.018C282.875 203.609 282.66 206.405 280.899 206.943Z" fill="#F4AE59"/>
<path opacity="0.1" d="M280.899 206.943C276.078 208.432 263.191 189.965 262.28 186.925C261.327 183.753 263.059 181.458 265.592 180.25C264.388 182.258 266.385 186.412 267.178 187.851C268.516 190.093 270.071 192.224 271.826 194.219C273.304 196.128 274.997 197.896 276.878 199.493C277.574 200.068 279.369 201.595 280.322 201.638C281.505 201.689 282.027 200.95 282.235 200.018C282.875 203.609 282.66 206.405 280.899 206.943Z" fill="#030402"/>
<path d="M240.668 176.422C238.63 176.115 238.797 179.65 239.193 180.244C239.59 180.838 245.936 184.904 257.103 184.135C269.356 183.303 276.899 178.936 277.504 178.142C278.109 177.348 276.85 173.944 275.514 174.038C274.178 174.132 260.61 179.406 240.668 176.422Z" fill="#F4AE59"/>
<path opacity="0.6" d="M240.668 176.422C238.63 176.115 238.797 179.65 239.193 180.244C239.59 180.838 245.936 184.904 257.103 184.135C269.356 183.303 276.899 178.936 277.504 178.142C278.109 177.348 276.85 173.944 275.514 174.038C274.178 174.132 260.61 179.406 240.668 176.422Z" fill="white"/>
<path d="M246.694 136.454L237.28 142.522C236.756 142.531 236.233 142.501 235.714 142.435C233.811 142.251 232.002 141.592 230.492 140.533C228.983 139.474 227.832 138.057 227.17 136.442C224.484 130.036 228.485 122.016 238.999 123.636C244.523 124.487 246.193 128.947 246.652 132.394C246.821 133.743 246.835 135.103 246.694 136.454Z" fill="#F4AE59"/>
<path opacity="0.6" d="M237.941 139.676C237.941 139.676 233.495 139.864 231.888 136.035C230.28 132.207 232.674 127.402 238.957 128.372C244.461 129.223 243.57 136.041 243.57 136.041L237.941 139.676Z" fill="white"/>
<path d="M292.999 134.921C293.041 138.274 291.044 140.408 288.616 141.765C286.085 143.055 283.276 143.844 280.378 144.08L272.028 136.873C272.028 136.873 270.33 130.361 276.836 126.82C280.698 124.718 285.61 124.593 288.999 126.82C291.33 128.372 292.937 131.024 292.999 134.921Z" fill="#F4AE59"/>
<path opacity="0.6" d="M275.263 136.967C275.263 136.967 274.248 133.07 278.144 130.949C282.04 128.828 287.725 130.073 287.809 135.797C287.885 140.802 280.259 141.277 280.259 141.277L275.263 136.967Z" fill="white"/>
<path opacity="0.1" d="M280.204 138.112C281.964 141.909 285.29 142.585 288.616 141.765C286.085 143.055 283.276 143.844 280.378 144.08L272.028 136.873C272.028 136.873 270.33 130.361 276.836 126.82C280.698 124.718 285.61 124.593 288.999 126.82C282.702 126.683 277.65 132.588 280.204 138.112Z" fill="#030402"/>
<path d="M284.365 164.542C284.101 165.543 283.745 166.522 283.3 167.469C282.787 168.544 282.151 169.567 281.4 170.522C278.826 173.775 274.999 176.152 270.63 177.816C264.606 179.979 258.12 180.901 251.648 180.512C243.862 180.05 237.419 177.647 233.133 174.069C230.967 172.302 229.31 170.089 228.304 167.619C226.725 163.66 227.609 159.944 229.153 156.284C230.336 153.475 231.902 150.698 233.036 147.877C233.781 146.002 234.676 144.179 235.715 142.422C236.283 141.471 236.908 140.548 237.586 139.657C239.213 137.484 241.245 135.579 243.591 134.026C244.552 133.395 245.569 132.837 246.632 132.356C249.711 130.981 253.082 130.215 256.519 130.11C257.995 130.038 259.475 130.038 260.951 130.11C270.247 130.592 276.078 133.939 279.188 137.58C282.423 141.408 287.05 154.664 284.365 164.542Z" fill="#F4AE59"/>
<g opacity="0.4">
<path opacity="0.6" d="M238.63 165.293C238.721 167.069 238.254 168.831 237.283 170.38C236.312 171.929 234.877 173.201 233.14 174.051C230.959 172.293 229.287 170.083 228.27 167.614C226.697 163.648 227.574 159.938 229.125 156.278C231.65 156.503 234.001 157.538 235.746 159.193C237.491 160.849 238.515 163.014 238.63 165.293Z" fill="white"/>
<path opacity="0.6" d="M284.365 164.542C284.1 165.543 283.744 166.522 283.3 167.47C281.011 172.318 276.266 175.702 270.63 177.817C268.718 177.364 266.969 176.474 265.554 175.233C264.138 173.991 263.105 172.441 262.555 170.734C262.005 169.026 261.956 167.22 262.414 165.491C262.871 163.761 263.82 162.168 265.166 160.866C266.513 159.565 268.212 158.599 270.098 158.064C271.983 157.529 273.99 157.442 275.924 157.812C277.858 158.183 279.652 158.997 281.131 160.177C282.611 161.356 283.725 162.86 284.365 164.542Z" fill="white"/>
</g>
<path opacity="0.1" d="M281.4 170.523C278.826 173.776 274.999 176.153 270.629 177.817C264.606 179.98 258.12 180.901 251.648 180.513C243.862 180.05 237.419 177.648 233.133 174.07C230.967 172.302 229.31 170.089 228.304 167.62C226.725 163.66 227.608 159.944 229.153 156.285C230.336 153.476 231.902 150.698 233.036 147.877C233.781 146.003 234.676 144.18 235.714 142.422C233.811 142.238 232.002 141.579 230.492 140.52C228.983 139.461 227.832 138.044 227.17 136.429C224.484 130.023 228.485 122.003 238.999 123.624C244.523 124.474 246.193 128.935 246.652 132.382C249.732 131.006 253.103 130.24 256.54 130.136C258.016 130.064 259.496 130.064 260.972 130.136C244.106 133.382 237.621 154.42 236.863 158.812C236.049 163.273 237.219 167.843 240.119 171.536C246.541 179.506 260.373 178.88 269.655 176.071C273.861 174.768 277.821 172.897 281.4 170.523Z" fill="#030402"/>
<path opacity="0.6" d="M246.339 153.382C243.64 154.283 238.804 163.066 240.585 165.418C242.366 167.77 257.145 169.334 259.963 167.095C262.781 164.855 258.871 155.697 257.138 154.521C255.406 153.344 248.851 152.544 246.339 153.382Z" fill="white"/>
<path d="M241.504 152.431C240.376 152.3 239.263 153.225 239.075 154.451C238.887 155.678 239.694 156.835 240.822 156.954C241.949 157.073 243.069 156.166 243.25 154.939C243.431 153.713 242.638 152.569 241.504 152.431Z" fill="#263238"/>
<path d="M243.048 153.763C243.048 153.726 242.944 153.763 242.958 153.763C243.368 155.559 242.352 157.579 240.077 157.567C240.042 157.567 240.028 157.611 240.077 157.617C242.519 158.08 243.987 155.665 243.048 153.763Z" fill="#263238"/>
<path d="M263.393 154.358C264.534 154.427 265.418 155.54 265.328 156.773C265.237 158.005 264.193 159 263.052 158.931C261.911 158.862 261.027 157.755 261.125 156.516C261.222 155.277 262.245 154.289 263.393 154.358Z" fill="#263238"/>
<path d="M261.577 155.384C261.577 155.353 261.682 155.384 261.661 155.421C260.854 157.11 261.396 159.275 263.637 159.669V159.719C261.097 159.7 260.227 157.079 261.577 155.384Z" fill="#263238"/>
<path d="M243.654 147.989C243.563 147.433 242.826 147.364 242.325 147.395C241.669 147.451 241.03 147.614 240.439 147.877C240.298 147.937 240.182 148.036 240.108 148.16C240.034 148.283 240.005 148.425 240.026 148.564C240.047 148.703 240.116 148.833 240.224 148.934C240.332 149.035 240.473 149.103 240.627 149.128C241.247 149.174 241.872 149.119 242.471 148.965C242.993 148.853 243.751 148.596 243.654 147.989Z" fill="#263238"/>
<path d="M263.031 149.791C263.247 149.265 263.992 149.309 264.465 149.453C265.098 149.618 265.688 149.892 266.204 150.26C266.333 150.343 266.428 150.462 266.477 150.597C266.525 150.733 266.523 150.879 266.471 151.014C266.42 151.149 266.321 151.265 266.19 151.346C266.06 151.426 265.903 151.467 265.745 151.461C265.125 151.393 264.524 151.226 263.971 150.967C263.484 150.767 262.802 150.373 263.031 149.791Z" fill="#263238"/>
<path d="M249.477 157.698C248.232 157.548 245.303 155.196 245.845 154.07C246.388 152.944 252.943 153.745 253.722 154.696C254.501 155.646 250.173 157.78 249.477 157.698Z" fill="#263238"/>
<path d="M272.592 161.402C272.526 161.987 272.27 162.541 271.854 162.995C271.438 163.448 270.882 163.781 270.256 163.95C269.631 164.12 268.963 164.119 268.337 163.947C267.712 163.775 267.158 163.441 266.744 162.986C266.33 162.531 266.076 161.975 266.013 161.39C265.951 160.805 266.082 160.217 266.392 159.699C266.701 159.181 267.174 158.758 267.752 158.482C268.329 158.206 268.984 158.09 269.634 158.149C270.506 158.229 271.306 158.617 271.86 159.226C272.414 159.836 272.677 160.618 272.592 161.402Z" fill="#FF99BA"/>
<path d="M237.064 158.293C236.998 158.877 236.74 159.431 236.323 159.884C235.906 160.336 235.349 160.668 234.723 160.836C234.097 161.005 233.429 161.002 232.804 160.829C232.179 160.656 231.626 160.321 231.213 159.865C230.801 159.409 230.548 158.853 230.486 158.268C230.425 157.683 230.558 157.095 230.868 156.578C231.179 156.061 231.653 155.638 232.231 155.363C232.808 155.088 233.464 154.973 234.114 155.033C234.986 155.114 235.787 155.502 236.34 156.114C236.893 156.725 237.154 157.509 237.064 158.293Z" fill="#FF99BA"/>
<path d="M7.73029 74.7727H0.681885V208.457H7.73029V74.7727Z" fill="#EBEBEB"/>
<path d="M7.91138 71.4319C7.91138 72.0914 7.69388 72.736 7.28637 73.2844C6.87887 73.8327 6.29966 74.2601 5.62201 74.5124C4.94435 74.7648 4.19868 74.8308 3.47928 74.7022C2.75989 74.5735 2.09908 74.2559 1.58043 73.7896C1.06177 73.3233 0.708559 72.7292 0.565462 72.0824C0.422366 71.4356 0.49581 70.7652 0.776504 70.156C1.0572 69.5467 1.53254 69.026 2.14241 68.6596C2.75229 68.2932 3.4693 68.0977 4.20279 68.0977C5.18637 68.0977 6.12967 68.4489 6.82516 69.0742C7.52066 69.6995 7.91138 70.5476 7.91138 71.4319Z" fill="#EBEBEB"/>
<path d="M196.18 74.7727H189.131V208.457H196.18V74.7727Z" fill="#EBEBEB"/>
<path d="M196.367 71.4319C196.367 72.0914 196.15 72.736 195.742 73.2844C195.335 73.8327 194.756 74.2601 194.078 74.5124C193.4 74.7648 192.655 74.8308 191.935 74.7022C191.216 74.5735 190.555 74.2559 190.036 73.7896C189.518 73.3233 189.165 72.7292 189.021 72.0824C188.878 71.4356 188.952 70.7652 189.232 70.156C189.513 69.5467 189.989 69.026 190.598 68.6596C191.208 68.2932 191.925 68.0977 192.659 68.0977C193.642 68.0993 194.584 68.4511 195.279 69.0761C195.974 69.701 196.366 70.5481 196.367 71.4319Z" fill="#EBEBEB"/>
<path d="M189.138 164.392H7.73035V184.185H189.138V164.392Z" fill="#EBEBEB"/>
<path d="M14.6535 164.398H7.73035V184.185H14.6535V164.398Z" fill="#DBDBDB"/>
<path d="M189.131 164.398H182.208V184.185H189.131V164.398Z" fill="#DBDBDB"/>
<path d="M94.6491 181.201H23.5388V167.382H94.6491V181.201ZM24.2346 180.575H93.9533V168.008H24.2346V180.575Z" fill="#DBDBDB"/>
<path d="M67.687 174.607H50.48V171.755H67.6661L67.687 174.607ZM51.1966 173.982H66.9912V172.38H51.1758L51.1966 173.982Z" fill="#DBDBDB"/>
<path d="M173.316 181.201H102.205V167.382H173.316V181.201ZM102.901 180.575H172.62V168.008H102.901V180.575Z" fill="#DBDBDB"/>
<path d="M146.354 174.607H129.167V171.755H146.354V174.607ZM129.863 173.982H145.658V172.38H129.863V173.982Z" fill="#DBDBDB"/>
<path d="M189.138 158.393H7.73035V164.398H189.138V158.393Z" fill="#DBDBDB"/>
<path d="M189.138 142.822H7.73035V158.393H189.138V142.822Z" fill="#F4AE59"/>
<path opacity="0.6" d="M189.138 142.822H7.73035V158.393H189.138V142.822Z" fill="white"/>
<path d="M188.95 82.3296H7.73035V87.6657H188.95V82.3296Z" fill="#EBEBEB"/>
<path d="M12.9627 87.6719H10.5623V164.398H12.9627V87.6719Z" fill="#EBEBEB"/>
<path d="M24.506 87.6719H22.1055V164.398H24.506V87.6719Z" fill="#EBEBEB"/>
<path d="M36.0492 87.6719H33.6487V164.398H36.0492V87.6719Z" fill="#EBEBEB"/>
<path d="M47.5924 87.6719H45.192V164.398H47.5924V87.6719Z" fill="#EBEBEB"/>
<path d="M59.1357 87.6719H56.7352V164.398H59.1357V87.6719Z" fill="#EBEBEB"/>
<path d="M70.6789 87.6719H68.2784V164.398H70.6789V87.6719Z" fill="#EBEBEB"/>
<path d="M82.2221 87.6719H79.8217V164.398H82.2221V87.6719Z" fill="#EBEBEB"/>
<path d="M93.7654 87.6719H91.3649V164.398H93.7654V87.6719Z" fill="#EBEBEB"/>
<path d="M105.309 87.6719H102.908V164.398H105.309V87.6719Z" fill="#EBEBEB"/>
<path d="M116.852 87.6719H114.451V164.398H116.852V87.6719Z" fill="#EBEBEB"/>
<path d="M128.395 87.6719H125.995V164.398H128.395V87.6719Z" fill="#EBEBEB"/>
<path d="M139.945 87.6719H137.545V164.398H139.945V87.6719Z" fill="#EBEBEB"/>
<path d="M151.489 87.6719H149.088V164.398H151.489V87.6719Z" fill="#EBEBEB"/>
<path d="M163.032 87.6719H160.631V164.398H163.032V87.6719Z" fill="#EBEBEB"/>
<path d="M174.575 87.6719H172.175V164.398H174.575V87.6719Z" fill="#EBEBEB"/>
<path d="M186.118 87.6719H183.718V164.398H186.118V87.6719Z" fill="#EBEBEB"/>
<path d="M188.95 82.3296H7.73035V87.6657H188.95V82.3296Z" fill="#EBEBEB"/>
<path d="M7.82749 245.528C8.02992 247.667 8.88198 249.714 10.2906 251.446C12.6196 254.297 15.9049 256.4 19.663 257.446C24.1439 258.584 36.536 258.697 41.9702 257.371C47.4043 256.044 51.2312 252.541 50.8207 246.392C50.4102 240.242 43.9114 233.88 43.9114 233.88C39.598 234.353 35.2404 234.408 30.914 234.043C29.7289 233.94 28.5341 233.974 27.3585 234.143C22.2026 234.856 18.3131 237.809 16.6919 237.897C14.7437 237.997 11.9049 235.194 11.056 235.106C10.2071 235.019 7.25694 238.991 7.82749 245.528Z" fill="#F4AE59"/>
<path opacity="0.6" d="M7.82749 245.528C8.02992 247.667 8.88198 249.714 10.2906 251.446C12.6196 254.297 15.9049 256.4 19.663 257.446C24.1439 258.584 36.536 258.697 41.9702 257.371C47.4043 256.044 51.2312 252.541 50.8207 246.392C50.4102 240.242 43.9114 233.88 43.9114 233.88C39.598 234.353 35.2404 234.408 30.914 234.043C29.7289 233.94 28.5341 233.974 27.3585 234.143C22.2026 234.856 18.3131 237.809 16.6919 237.897C14.7437 237.997 11.9049 235.194 11.056 235.106C10.2071 235.019 7.25694 238.991 7.82749 245.528Z" fill="white"/>
<path d="M12.8302 250.914C12.698 250.839 15.0637 243.101 22.627 239.028C22.7592 238.953 22.7592 239.122 22.627 239.216C20.6301 240.761 15.2307 246.404 13.8252 250.439C23.2532 252.904 33.5232 246.598 36.1324 243.157C36.195 243.082 36.3203 243.157 36.2716 243.251C29.6058 254.186 14.1244 252.397 12.8302 250.914Z" fill="#F4AE59"/>
<path opacity="0.1" d="M10.2906 251.446C12.6196 254.297 15.9049 256.4 19.6629 257.446C24.1439 258.584 36.536 258.697 41.9701 257.371C47.4043 256.044 51.2312 252.541 50.8207 246.392C50.4101 240.242 43.9114 233.88 43.9114 233.88C39.5979 234.353 35.2404 234.408 30.914 234.043C29.7289 233.94 28.534 233.974 27.3584 234.143C31.6585 235.726 35.875 238.378 38.4912 241.856C43.6122 248.738 34.4625 252.647 28.2351 253.636C22.1463 254.617 15.8685 253.851 10.2906 251.446Z" fill="#030402"/>
<path d="M46.4302 226.917C47.0425 228.988 50.2432 231.922 50.5285 231.847L50.8555 231.784C53.1785 231.227 55.2025 229.94 56.561 228.156C59.0172 225.028 57.9526 220.849 56.8602 220.593C55.7678 220.336 54.7728 222.107 52.8942 222.47C51.0155 222.832 50.0136 222.032 48.8725 221.356C48.7194 221.538 45.8388 224.903 46.4302 226.917Z" fill="#F4AE59"/>
<path d="M27.3655 234.425C28.5278 236.211 30.2323 237.662 32.2793 238.608C34.3262 239.554 36.6307 239.956 38.9227 239.767C45.4631 239.417 49.5405 235.976 50.8555 231.785C51.2313 230.579 51.3795 229.325 51.2939 228.075C51.162 225.684 50.3264 223.368 48.8725 221.363C47.6427 219.664 45.9237 218.297 43.8984 217.407C41.8731 216.517 39.6173 216.137 37.371 216.308C36.6436 216.348 35.9204 216.436 35.2071 216.571C28.5066 217.866 25.3616 223.364 25.4312 228.3C25.4778 230.457 26.1441 232.567 27.3655 234.425Z" fill="#F4AE59"/>
<path opacity="0.6" d="M27.3655 234.425C28.5278 236.211 30.2323 237.662 32.2793 238.608C34.3262 239.554 36.6307 239.956 38.9227 239.767C45.4631 239.417 49.5405 235.976 50.8555 231.785C51.2313 230.579 51.3795 229.325 51.2939 228.075C51.162 225.684 50.3264 223.368 48.8725 221.363C47.6427 219.664 45.9237 218.297 43.8984 217.407C41.8731 216.517 39.6173 216.137 37.371 216.308C36.6436 216.348 35.9204 216.436 35.2071 216.571C28.5066 217.866 25.3616 223.364 25.4312 228.3C25.4778 230.457 26.1441 232.567 27.3655 234.425Z" fill="white"/>
<path d="M43.6749 227.593C46.1658 227.161 47.1538 230.777 44.475 231.24C41.7962 231.703 41.1004 228.031 43.6749 227.593Z" fill="#263238"/>
<path opacity="0.1" d="M27.3654 234.425C28.5277 236.211 30.2323 237.662 32.2792 238.608C34.3261 239.554 36.6306 239.956 38.9226 239.767C45.4631 239.417 49.5404 235.976 50.8555 231.785C53.1784 231.227 55.2024 229.94 56.561 228.156C59.0171 225.029 57.9526 220.85 56.8602 220.593C55.7678 220.337 54.7728 222.107 52.8941 222.47C51.0155 222.833 50.0136 222.032 48.8724 221.357C47.6426 219.658 45.9236 218.291 43.8983 217.401C41.873 216.511 39.6172 216.131 37.371 216.302C36.6435 216.342 35.9203 216.43 35.207 216.565C43.3409 218.585 50.271 228.069 41.7962 233.63C40.1408 234.663 38.2563 235.362 36.2722 235.678C34.2881 235.995 32.2513 235.921 30.3017 235.463C29.2812 235.221 28.2957 234.873 27.3654 234.425Z" fill="#030402"/>
<path d="M189.855 202.414C197.286 203.44 211.71 230.408 203.958 233.692C197.696 236.351 177.219 222.338 177.831 212.992C178.242 206.799 184.643 201.694 189.855 202.414Z" fill="#F7A9A0"/>
<path d="M131.804 199.643C131.366 189.095 137.531 168.727 149.895 165.236C162.259 161.746 175.96 168.014 178.228 182.458C179.995 193.718 175.285 205.36 175.285 205.36C175.285 205.36 185.722 201.663 188.881 202.276C195.143 203.496 201.648 214.356 195.386 220.887C190.912 225.547 160.019 246.754 142.749 231.484C132.897 222.776 132.34 212.736 131.804 199.643Z" fill="#F7A9A0"/>
<g opacity="0.1">
<path d="M189.855 202.414C197.286 203.44 211.71 230.408 203.958 233.692C197.696 236.351 177.219 222.338 177.831 212.992C178.242 206.799 184.643 201.695 189.855 202.414Z" fill="black"/>
<path d="M131.804 199.643C131.366 189.095 137.531 168.727 149.895 165.236C162.259 161.746 175.96 168.014 178.228 182.458C179.995 193.718 175.285 205.36 175.285 205.36C175.285 205.36 185.722 201.663 188.881 202.276C195.143 203.496 201.648 214.356 195.386 220.887C190.912 225.547 160.019 246.754 142.749 231.484C132.897 222.776 132.34 212.736 131.804 199.643Z" fill="black"/>
</g>
<path d="M175.66 203.596C174.712 206.576 173.211 209.391 171.221 211.922C170.275 213.142 169.259 214.306 168.188 215.438C167.067 216.701 165.816 217.865 164.451 218.916C164.298 219.023 164.451 219.229 164.639 219.129C165.37 218.641 166.17 218.241 166.88 217.715C167.577 217.19 168.243 216.632 168.876 216.045C170.094 214.926 171.161 213.684 172.056 212.342C173.844 209.65 175.112 206.706 175.807 203.634C175.82 203.559 175.723 203.521 175.66 203.596Z" fill="#263238"/>
<path d="M191.378 220.656C190.195 222.694 188.643 224.542 186.786 226.123C185.916 226.855 185.019 227.531 184.087 228.175C183.116 228.9 182.062 229.529 180.942 230.052C180.816 230.102 180.893 230.302 181.018 230.258C181.596 230.039 182.201 229.902 182.771 229.633C183.337 229.376 183.885 229.09 184.414 228.776C185.452 228.161 186.401 227.432 187.238 226.605C189.002 224.859 190.429 222.861 191.462 220.693C191.49 220.662 191.406 220.606 191.378 220.656Z" fill="#263238"/>
<path d="M70.8319 205.592C74.7423 206.436 96.792 210.628 110.569 207.087C121.101 204.491 130.114 198.345 135.736 189.927C144.781 176.622 136.244 166.594 127.108 170.96C116.26 176.152 106.234 182.627 99.2343 184.723C90.676 187.275 75.8277 187.976 73.4898 188.37C68.5706 189.202 65.9613 204.528 70.8319 205.592Z" fill="#F7A9A0"/>
<path d="M74.8884 188.407C73.5594 186.7 68.2644 183.791 67.4712 182.371C66.678 180.951 65.5995 176.972 63.2547 178.023C60.9099 179.074 63.3034 184.773 63.867 186.074C64.4306 187.375 49.5406 182.915 48.3021 186.074C47.0635 189.233 57.5631 191.36 57.3474 192.004C57.1317 192.649 45.9224 191.454 45.1988 194.256C44.4752 197.059 56.6029 197.328 56.582 197.547C56.5611 197.766 47.9472 194.995 46.7783 197.328C45.6093 199.661 57.8205 201.745 57.7788 202.239C57.737 202.733 50.5843 203.615 51.1061 206.124C51.628 208.632 62.3989 206.061 63.3869 205.961C64.3749 205.861 72.0217 206.324 73.2115 205.254C74.4013 204.184 75.8347 189.627 74.8884 188.407Z" fill="#F7A9A0"/>
<g opacity="0.1">
<path d="M70.8319 205.592C74.7423 206.436 96.792 210.628 110.569 207.087C121.101 204.491 130.114 198.345 135.736 189.927C144.781 176.622 136.244 166.594 127.108 170.96C116.26 176.152 106.234 182.627 99.2343 184.723C90.676 187.275 75.8277 187.976 73.4898 188.37C68.5706 189.202 65.9613 204.528 70.8319 205.592Z" fill="black"/>
<path d="M74.8883 188.407C73.5594 186.7 68.2644 183.791 67.4711 182.371C66.6779 180.951 65.5995 176.972 63.2546 178.023C60.9098 179.074 63.3033 184.773 63.8669 186.074C64.4305 187.375 49.5405 182.915 48.302 186.074C47.0635 189.233 57.563 191.36 57.3473 192.004C57.1316 192.649 45.9224 191.454 45.1987 194.256C44.4751 197.059 56.6028 197.328 56.5819 197.547C56.5611 197.766 47.9471 194.995 46.7782 197.328C45.6093 199.661 57.8205 201.745 57.7787 202.239C57.737 202.733 50.5842 203.615 51.106 206.124C51.6279 208.632 62.3988 206.061 63.3868 205.961C64.3749 205.861 72.0216 206.324 73.2115 205.254C74.4013 204.184 75.8346 189.627 74.8883 188.407Z" fill="black"/>
</g>
<path d="M65.3908 188.952C64.3101 191.004 63.5222 193.171 63.046 195.401C62.6543 197.658 62.6098 199.952 62.9138 202.22C62.9138 202.395 63.2339 202.395 63.213 202.22C63.0656 199.977 63.208 197.727 63.6374 195.514C63.9907 193.289 64.6546 191.114 65.6135 189.039C65.6691 188.927 65.4534 188.839 65.3908 188.952Z" fill="#263238"/>
<path d="M55.2113 197.353C54.439 197.24 53.6736 197.115 52.9082 196.977C52.1428 196.84 51.5166 196.759 50.7582 196.69C49.9094 196.602 49.3666 196.577 48.5178 196.427C48.2742 196.377 48.2255 196.427 48.4551 196.521C49.8636 196.91 51.2973 197.221 52.7482 197.453C53.4997 197.541 54.2442 197.616 54.9956 197.678C55.7991 197.767 56.6075 197.815 57.417 197.822C57.5144 197.822 57.5492 197.678 57.417 197.659C56.7421 197.522 55.9489 197.465 55.2113 197.353Z" fill="#263238"/>
<path d="M162.44 219.154C161.675 218.71 166.142 205.135 166.504 191.11C166.942 174.094 163.129 163.76 163.797 162.821C165.189 160.907 168.118 162.659 168.591 162.627C169.064 162.596 187.378 157.416 199.61 162.196C211.842 166.975 219.788 182.32 217.311 194.794C214.834 207.268 203.861 228.575 165.474 218.91C165.244 218.854 164.138 220.167 162.44 219.154Z" fill="#F4AE59"/>
<g opacity="0.6">
<path d="M162.44 219.154C161.675 218.71 166.142 205.135 166.504 191.11C166.942 174.094 163.129 163.76 163.797 162.821C165.189 160.907 168.118 162.659 168.591 162.627C169.064 162.596 187.378 157.416 199.61 162.196C211.842 166.975 219.788 182.32 217.311 194.794C214.834 207.268 203.861 228.575 165.474 218.91C165.244 218.854 164.138 220.167 162.44 219.154Z" fill="white"/>
</g>
<path d="M168.682 165.117C169.621 167.18 170.398 169.299 171.006 171.46C171.594 173.629 172.059 175.824 172.397 178.035C173.109 182.465 173.342 186.946 173.093 191.416C172.869 195.889 172.17 200.332 171.006 204.684C170.451 206.86 169.772 209.008 168.974 211.122C168.626 212.191 168.104 213.211 167.659 214.249C167.213 215.288 166.733 216.314 166.267 217.333C166.608 216.264 166.963 215.194 167.325 214.137C167.687 213.08 168.09 212.035 168.334 210.94C168.904 208.788 169.565 206.661 169.962 204.478L170.296 202.852C170.407 202.307 170.553 201.776 170.616 201.225L171.103 197.947C171.298 196.859 171.347 195.751 171.465 194.657C171.583 193.562 171.694 192.461 171.701 191.36L171.827 188.057L171.771 184.754C171.694 182.552 171.541 180.375 171.291 178.154C170.851 173.748 169.978 169.385 168.682 165.117Z" fill="#F4AE59"/>
<path d="M230.447 214.343C237.802 215.751 250.486 243.413 242.54 246.31C236.146 248.643 216.566 233.598 217.77 224.302C218.577 218.128 225.291 213.355 230.447 214.343Z" fill="#F7A9A0"/>
<path d="M172.662 208.595C172.905 198.047 180.315 178.023 192.895 175.17C205.475 172.318 218.744 179.28 220.094 193.819C221.138 205.154 215.697 216.533 215.697 216.533C215.697 216.533 226.349 213.405 229.473 214.156C235.659 215.695 241.448 226.874 234.782 233.067C230.023 237.49 197.828 257.076 181.561 240.943C172.286 231.747 172.369 221.694 172.662 208.595Z" fill="#F7A9A0"/>
<path d="M216.204 214.8C215.063 217.723 213.386 220.455 211.243 222.882C210.214 224.052 209.156 225.159 207.987 226.235C206.788 227.438 205.465 228.535 204.035 229.513C204.006 229.535 203.986 229.566 203.981 229.6C203.976 229.635 203.986 229.669 204.007 229.697C204.029 229.726 204.062 229.745 204.099 229.753C204.137 229.761 204.176 229.755 204.209 229.738C204.974 229.288 205.795 228.931 206.54 228.443C207.265 227.955 207.962 227.433 208.627 226.88C209.915 225.826 211.059 224.64 212.037 223.345C213.995 220.748 215.449 217.872 216.337 214.837C216.365 214.768 216.232 214.725 216.204 214.8Z" fill="#263238"/>
<path d="M230.809 232.635C229.499 234.611 227.832 236.376 225.876 237.859C224.965 238.547 224.018 239.179 223.051 239.773C222.033 240.444 220.939 241.016 219.788 241.481C219.663 241.524 219.725 241.731 219.857 241.687C220.449 241.499 221.054 241.399 221.646 241.174C222.226 240.948 222.79 240.691 223.336 240.405C224.413 239.843 225.408 239.164 226.301 238.384C228.166 236.726 229.717 234.806 230.893 232.698C230.921 232.679 230.844 232.585 230.809 232.635Z" fill="#263238"/>
<path d="M165.057 163.791C173.538 183.415 164.778 216.689 162.419 217.99C162.419 217.99 122.808 220.099 104.891 184.091C103.931 182.158 132.521 166.831 139.597 163.585C146.221 160.551 157.625 162.527 163.324 163.141C164.291 163.241 164.91 163.441 165.057 163.791Z" fill="#F7A9A0"/>
<g opacity="0.1">
<path d="M139.73 189.383C139.558 189.295 139.37 189.239 139.174 189.218C138.979 189.196 138.781 189.209 138.591 189.257C138.402 189.305 138.224 189.386 138.07 189.495C137.915 189.605 137.786 189.741 137.691 189.896C137.451 190.235 137.365 190.644 137.45 191.039C137.536 191.433 137.786 191.783 138.15 192.017C138.417 192.163 138.737 192.208 139.041 192.142C139.345 192.076 139.607 191.905 139.771 191.666C139.919 191.592 140.053 191.497 140.168 191.385C140.295 191.23 140.384 191.054 140.431 190.867C140.478 190.679 140.48 190.485 140.439 190.297C140.398 190.109 140.314 189.93 140.191 189.773C140.069 189.616 139.912 189.483 139.73 189.383Z" fill="black"/>
<path d="M122.884 199.28C122.713 199.192 122.525 199.136 122.329 199.114C122.134 199.093 121.935 199.106 121.746 199.154C121.556 199.201 121.379 199.283 121.225 199.392C121.07 199.502 120.941 199.638 120.846 199.793C120.605 200.132 120.519 200.542 120.606 200.937C120.692 201.332 120.945 201.682 121.312 201.913C121.444 201.987 121.591 202.037 121.745 202.06C121.899 202.082 122.056 202.077 122.207 202.044C122.359 202.012 122.502 201.952 122.627 201.87C122.753 201.787 122.859 201.683 122.94 201.563C123.085 201.488 123.217 201.393 123.33 201.282C123.457 201.127 123.547 200.95 123.594 200.763C123.641 200.575 123.643 200.38 123.601 200.192C123.559 200.003 123.474 199.825 123.35 199.667C123.227 199.51 123.068 199.378 122.884 199.28Z" fill="black"/>
<path d="M145.943 211.503C145.846 211.503 145.727 211.591 145.79 211.691C145.92 211.861 146.064 212.022 146.221 212.173C146.305 212.266 146.527 212.548 146.416 212.686C146.305 212.823 145.957 212.686 145.832 212.623C145.257 212.21 144.865 211.627 144.725 210.978C144.716 210.953 144.697 210.932 144.672 210.918C144.647 210.905 144.618 210.899 144.589 210.903C144.56 210.907 144.534 210.919 144.514 210.939C144.495 210.958 144.483 210.983 144.482 211.009C144.565 211.86 145.136 213.793 146.5 213.511C146.741 213.447 146.947 213.303 147.076 213.108C147.205 212.914 147.248 212.682 147.195 212.46C147.127 212.202 146.968 211.97 146.743 211.798C146.518 211.626 146.238 211.523 145.943 211.503Z" fill="black"/>
</g>
<path d="M154.153 241.468C155.406 238.027 165.53 218.947 162.712 206.292C159.713 192.848 154.71 182.195 149.589 178.842C135.569 169.652 123.845 181.97 126.008 191.084C128.701 202.526 134.038 207.086 135.638 213.555C135.819 214.305 133.6 230.777 135.269 237.702C136.306 242.125 152.56 245.747 154.153 241.468Z" fill="#F7A9A0"/>
<path d="M135.137 235C133.238 235.506 130.475 237.927 128.875 238.19C127.275 238.453 122.676 239.741 123.796 241.093C124.916 242.444 131.248 241.818 132.688 241.668C134.128 241.518 128.973 248.843 132.431 249.844C135.889 250.845 138.415 245.565 139.117 245.766C139.82 245.966 138.331 251.709 141.413 252.403C144.496 253.097 144.983 246.773 145.226 246.773C145.47 246.773 142.262 251.027 144.823 251.903C147.383 252.778 149.874 246.591 150.389 246.666C150.904 246.742 151.781 250.601 154.564 250.608C157.347 250.614 154.675 244.665 154.564 244.133C154.453 243.601 155.107 239.635 153.938 238.891C152.769 238.146 136.494 234.637 135.137 235Z" fill="#F7A9A0"/>
<path d="M135.047 220.887C134.622 218.42 134.75 215.902 135.423 213.48C135.576 212.854 135.791 212.279 135.993 211.685C136.222 211.095 136.485 210.517 136.779 209.952C137.357 208.82 138.089 207.757 138.957 206.786C138.327 207.874 137.767 208.994 137.28 210.139C136.797 211.275 136.402 212.439 136.098 213.624C135.777 214.809 135.533 216.01 135.367 217.221C135.19 218.437 135.083 219.661 135.047 220.887Z" fill="#263238"/>
<path d="M135.604 213.555C134.65 212.073 133.815 210.546 133.029 209.007C132.243 207.469 131.498 205.88 130.782 204.341C130.065 202.802 129.39 201.213 128.764 199.593C128.138 197.972 127.525 196.396 126.99 194.751C128.032 196.18 128.962 197.672 129.773 199.217C130.608 200.744 131.359 202.301 132.076 203.872C132.793 205.442 133.467 207.031 134.038 208.645C134.655 210.256 135.177 211.895 135.604 213.555Z" fill="#263238"/>
<path d="M126.391 197.278C127.166 197.725 127.868 198.266 128.479 198.886C129.111 199.491 129.645 200.173 130.065 200.913C128.509 200.005 127.24 198.754 126.377 197.278H126.391Z" fill="#263238"/>
<path d="M156.129 187.212C157.969 191.154 159.569 195.182 160.923 199.28C161.615 201.337 162.186 203.425 162.635 205.535C162.74 206.073 162.816 206.611 162.906 207.149C162.997 207.687 163.025 208.257 163.025 208.801C163.025 209.345 163.025 209.896 163.025 210.434C163.025 210.972 162.983 211.51 162.941 212.048C162.589 216.327 161.891 220.577 160.854 224.765C160.325 226.855 159.713 228.925 158.982 230.971L158.398 232.485L157.744 233.986C157.507 234.48 157.257 234.962 157.013 235.45C156.77 235.938 156.436 236.388 156.157 236.858C157.08 234.901 157.806 232.875 158.328 230.802C158.899 228.738 159.358 226.661 159.789 224.546C160.62 220.375 161.21 216.168 161.557 211.941C161.605 211.416 161.64 210.89 161.654 210.365C161.668 209.839 161.689 209.32 161.654 208.801C161.619 208.282 161.591 207.775 161.564 207.262L161.327 205.711C160.972 203.634 160.423 201.569 159.866 199.505C158.718 195.414 157.445 191.31 156.129 187.212Z" fill="#263238"/>
<path d="M157.966 188.62C158.367 189.482 158.625 190.392 158.732 191.322C158.884 192.249 158.865 193.191 158.676 194.112C158.371 193.227 158.16 192.318 158.043 191.397C157.906 190.477 157.88 189.545 157.966 188.62Z" fill="#263238"/>
<path d="M151.12 237.183C149.356 236.247 147.46 235.527 145.484 235.044C143.443 234.622 141.347 234.46 139.256 234.562C139.096 234.562 139.062 234.8 139.222 234.793C141.277 234.804 143.324 235.037 145.317 235.488C147.303 235.882 149.222 236.513 151.022 237.364C151.12 237.389 151.217 237.233 151.12 237.183Z" fill="#263238"/>
<path d="M139.263 131.837C140.22 132.609 141.4 133.119 142.668 133.309C143.935 133.498 145.236 133.359 146.419 132.907C147.601 132.455 148.616 131.71 149.344 130.758C150.072 129.806 150.483 128.687 150.528 127.533C152.748 129.009 155.677 129.491 158.099 127.877C160.52 126.263 160.986 123.292 159.581 120.908C159.581 120.908 159.539 120.908 159.546 120.908C160.562 123.198 160.158 125.975 157.82 127.489C155.823 128.784 153.646 128.565 151.746 127.646C152.755 127.804 153.789 127.774 154.785 127.559C155.78 127.344 156.716 126.948 157.535 126.395C158.42 125.751 159.074 124.888 159.417 123.912C159.76 122.937 159.776 121.892 159.462 120.908C161.967 120.251 164.396 118.775 165.314 116.492C165.706 115.544 165.784 114.515 165.537 113.528C165.29 112.542 164.729 111.641 163.922 110.937C165.047 110.433 165.984 109.646 166.619 108.671C167.254 107.696 167.559 106.576 167.497 105.448C167.435 104.319 167.009 103.232 166.27 102.318C165.531 101.404 164.512 100.703 163.338 100.302C164.109 99.8685 164.746 99.2677 165.191 98.5547C165.636 97.8418 165.874 97.0397 165.884 96.2222C165.894 95.4048 165.674 94.5983 165.247 93.8769C164.819 93.1556 164.196 92.5427 163.435 92.0945C163.947 91.6651 164.311 91.1128 164.485 90.5031C164.659 89.8935 164.635 89.2518 164.416 88.6539C163.943 87.2401 162.6 86.2767 161.188 85.6011C161.383 84.9676 161.399 84.3003 161.234 83.6599C161.069 83.0195 160.727 82.4266 160.242 81.9353C159.593 81.324 158.724 80.9399 157.79 80.8517C156.856 80.7634 155.917 80.9768 155.141 81.4536C153.993 79.3517 152.414 77.206 149.916 76.2989C147.863 75.5545 145.303 75.7546 143.737 77.231C143.123 76.4001 142.32 75.6958 141.381 75.1646C140.442 74.6335 139.388 74.2876 138.289 74.1498C137.19 74.0121 136.071 74.0855 135.006 74.3654C133.941 74.6453 132.954 75.1252 132.111 75.7734C131.361 75.2254 130.465 74.8636 129.511 74.7242C128.558 74.5848 127.58 74.6726 126.676 74.9789C125.415 75.3523 124.273 75.9964 123.351 76.8556C122.638 76.4164 121.792 76.1865 120.929 76.1977C120.065 76.2089 119.227 76.4606 118.529 76.9182C117.894 77.3666 117.378 77.9357 117.017 78.5846C116.656 79.2336 116.46 79.9463 116.441 80.6716C116.158 81.009 115.795 81.2849 115.377 81.4786C114.331 81.9666 113.435 82.6783 112.768 83.551C112.101 84.4238 111.682 85.4308 111.55 86.4832C110.867 86.6005 110.22 86.848 109.652 87.209C109.084 87.57 108.609 88.0362 108.258 88.5761C107.907 89.116 107.689 89.7172 107.619 90.3392C107.548 90.9612 107.626 91.5896 107.848 92.1821C106.579 92.8046 105.633 93.8511 105.216 95.0954C104.798 96.3397 104.941 97.6819 105.615 98.8319C104.649 99.3943 103.829 100.138 103.212 101.011C102.594 101.884 102.194 102.867 102.038 103.893C101.809 105.488 102.317 107.352 103.931 108.153C102.825 108.941 102.971 110.511 103.757 111.512C104.067 111.888 104.422 112.232 104.815 112.538C105.267 112.907 105.963 113.264 106.248 113.789C106.533 114.315 106.373 114.959 106.401 115.51C106.425 115.909 106.495 116.305 106.61 116.692C107.067 118.123 108.053 119.371 109.405 120.231C110.757 121.091 112.395 121.51 114.048 121.421C114.18 123.554 116.212 125.012 118.327 125.725C119.019 125.944 119.731 126.105 120.456 126.207C121.112 126.266 121.732 126.506 122.23 126.895C122.536 127.164 122.78 127.521 123.093 127.764C124.234 128.709 125.626 128.834 127.017 128.778C127.588 134.464 135.256 135.634 139.263 131.837ZM118.285 77.769C118.921 77.194 119.74 76.8111 120.629 76.6732C121.518 76.5353 122.433 76.6494 123.246 76.9995L123.107 77.1559C123.107 77.1559 122.516 77.0746 122.223 77.0683C121.686 77.0526 121.149 77.1095 120.63 77.2372C119.845 77.4177 119.115 77.7519 118.49 78.2159C117.866 78.6798 117.364 79.262 117.019 79.9209L116.928 80.0648C117.132 79.2001 117.602 78.4045 118.285 77.769ZM159.88 83.2052C159.382 82.5728 158.679 82.0945 157.866 81.8357C157.054 81.577 156.173 81.5506 155.343 81.7601L155.281 81.6475C156.916 80.9782 158.613 80.7717 160.012 82.1542C160.44 82.5839 160.733 83.1078 160.863 83.6725C160.992 84.2373 160.953 84.8229 160.75 85.3696C160.691 84.5891 160.39 83.8391 159.88 83.2052ZM127.282 128.772H127.344C128.034 130.43 129.415 131.782 131.195 132.54C132.974 133.298 135.013 133.403 136.877 132.832C132.855 134.345 128.409 133.57 127.282 128.772Z" fill="#263238"/>
<path d="M147.488 159.012C142.227 172.712 128.882 179.03 121.082 181.219C109.003 184.629 75.1598 188.551 65.4743 169.409C63.2269 164.973 62.0858 158.348 61.8283 151.198C61.3274 137.504 64.0688 121.878 68.4871 115.947C77.8664 103.367 103.625 95.5287 125.995 103.711C144.002 110.305 152.762 145.299 147.488 159.012Z" fill="#F7A9A0"/>
<path d="M108.683 137.749C107.72 137.543 106.77 137.29 105.837 136.992C104.752 136.692 103.847 136.554 103.096 135.741C102.913 135.486 102.829 135.184 102.857 134.882C102.885 134.58 103.022 134.295 103.249 134.07C104.279 133.157 105.712 133.226 107.041 133.539C108.39 133.815 109.575 134.533 110.367 135.553C111.216 136.585 109.991 137.98 108.683 137.749Z" fill="#263238"/>
<path d="M77.5464 137.673C78.5103 137.482 79.4625 137.246 80.3992 136.967C81.4846 136.685 82.3752 136.554 83.1336 135.715C83.3188 135.465 83.4069 135.167 83.3843 134.867C83.3616 134.568 83.2295 134.283 83.0084 134.058C81.9995 133.138 80.5731 133.194 79.2511 133.488C77.9122 133.751 76.728 134.448 75.9252 135.446C75.0485 136.491 76.2244 137.892 77.5464 137.673Z" fill="#263238"/>
<path d="M98.6568 159.099C98.8062 159.462 98.9271 159.835 99.0186 160.213C99.4083 161.714 99.6588 164.354 97.133 165.318C96.1686 165.662 95.1046 165.71 94.1063 165.455C91.3649 164.867 88.7974 162.284 88.7974 162.284C94.6769 163.147 98.6568 159.099 98.6568 159.099Z" fill="#263238"/>
<path d="M99.0186 160.213C99.4082 161.714 99.6587 164.354 97.133 165.318C96.1685 165.662 95.1045 165.71 94.1063 165.455C94.3155 164.131 94.9852 162.9 96.0197 161.939C96.8462 161.151 97.8762 160.558 99.0186 160.213Z" fill="#FF99BA"/>
<path d="M84.9844 140.908C84.4417 146.538 84.8452 144.536 84.0311 150.154C82.6395 150.304 76.3774 150.617 76.8575 151.098C78.59 152.831 83.7041 155.759 83.6832 155.803C83.0292 157.348 80.253 159.074 80.3991 159.193C88.4703 165.974 96.0406 161.771 98.5663 159.381C99.0742 158.899 98.8585 158.918 98.5663 159.131C95.9919 160.87 88.3103 163.654 82.6117 159.012C83.6778 158.095 84.4761 156.956 84.9357 155.696C84.9913 155.54 80.9696 153.05 79.3693 151.674C81.2688 151.511 83.6067 151.461 85.0192 151.355C85.3462 151.355 86.1324 146.895 85.5619 140.889C85.5591 140.82 85.526 140.755 85.4699 140.708C85.4138 140.661 85.3393 140.636 85.2627 140.639C85.1861 140.641 85.1138 140.671 85.0616 140.722C85.0094 140.772 84.9816 140.839 84.9844 140.908Z" fill="#263238"/>
<path d="M105.023 142.178C110.137 142.047 110.047 151.261 105.309 151.38C100.57 151.499 100.73 142.284 105.023 142.178Z" fill="#263238"/>
<path d="M106.651 142.528C107.472 142.897 108.321 143.616 109.254 143.61C110.332 143.61 111.049 142.703 111.654 141.84C111.717 141.752 111.8 141.84 111.814 141.915C112.016 143.429 111.55 145.043 109.769 145.437C108.147 145.8 106.811 144.574 106.213 143.091C106.102 142.816 106.324 142.372 106.651 142.528Z" fill="#263238"/>
<path d="M81.0114 142.341C76.5513 142.034 76.1408 150.905 80.2529 151.192C84.3651 151.48 84.7408 142.597 81.0114 142.341Z" fill="#263238"/>
<path d="M79.7659 142.528C78.9449 142.897 78.103 143.616 77.1637 143.61C76.0852 143.61 75.3685 142.703 74.7632 141.84C74.7006 141.752 74.6171 141.84 74.6031 141.915C74.4014 143.429 74.8676 145.043 76.6488 145.437C78.27 145.8 79.6059 144.574 80.2043 143.091C80.3156 142.816 80.093 142.372 79.7659 142.528Z" fill="#263238"/>
<path d="M103.145 183.259C99.3108 182.977 95.4909 183.421 91.664 183.015C87.9584 182.609 84.3151 181.831 80.8027 180.694C77.0293 179.578 73.4985 177.885 70.3657 175.689C70.164 175.539 70.2057 175.652 70.3657 175.821C72.8788 178.073 75.8381 179.883 79.091 181.157C82.2385 182.483 85.5575 183.452 88.9713 184.041C92.4733 184.624 96.0395 184.834 99.5961 184.666C103.646 184.504 108.467 184.128 111.105 187.538C111.174 187.625 111.334 187.538 111.272 187.45C109.727 184.766 106.38 183.503 103.145 183.259Z" fill="#263238"/>
<path d="M123.385 184.047C123.811 182.786 124.543 181.626 125.528 180.65C126.529 179.691 127.642 178.831 128.847 178.085C131.206 176.571 133.607 175.22 135.861 173.663C138.188 172.263 140.228 170.512 141.893 168.489C143.468 166.353 144.913 164.141 146.221 161.864C145.41 164.369 144.265 166.776 142.812 169.033C142.042 170.173 141.119 171.224 140.064 172.161C138.999 173.059 137.872 173.895 136.689 174.663C134.354 176.177 131.937 177.584 129.446 178.88C128.218 179.519 127.054 180.251 125.967 181.069C124.912 181.912 124.037 182.921 123.385 184.047Z" fill="#263238"/>
<path d="M63.4078 132.869C65.3093 132.826 67.1228 132.141 68.4871 130.949C71.319 128.503 71.5486 126.195 71.5486 126.195C74.6449 124.262 76.9967 120.69 76.3148 117.38C78.1107 117.704 79.9692 117.604 81.7093 117.09C83.4493 116.575 85.0116 115.665 86.2438 114.446C88.7765 123.83 102.393 127.708 111.501 122.579C111.884 126.401 113.171 130.28 116.302 132.988C119.311 135.616 123.099 137.408 127.212 138.149C127.209 138.168 127.209 138.187 127.212 138.206C125.076 145.337 133.14 151.399 140.641 150.023C141.348 149.956 142.046 149.832 142.728 149.653C146.361 148.665 149.909 147.051 151.377 143.754C152.279 141.656 152.312 139.336 151.47 137.217C150.628 135.099 148.968 133.323 146.792 132.213C148.298 130.877 149.255 129.121 149.508 127.233C149.761 125.344 149.294 123.435 148.183 121.816C146.722 119.72 143.216 118.725 142.868 116.229C142.551 113.439 141.232 110.818 139.111 108.763C136.989 106.707 134.18 105.329 131.109 104.838C129.43 104.666 127.843 104.057 126.544 103.086C125.706 102.41 124.82 101.784 123.893 101.209C120.241 99.0724 115.909 98.0725 111.564 98.363C109.017 98.5381 106.484 99.6829 103.959 99.0449C101.767 98.4944 94.8647 98.9448 92.6173 99.3952C82.8205 101.353 78.7918 105.388 78.7918 105.388C78.7918 105.388 73.6569 106.358 69.3429 111.875C65.2169 117.143 65.1682 120.008 65.1682 120.008C64.6114 121.441 63.9537 122.841 63.1991 124.199C60.6594 127.721 63.1364 132.876 63.4078 132.869ZM127.324 138.562C128.576 143.848 130.469 146.275 132.82 147.946C129.153 146.05 126.621 142.672 127.324 138.562ZM87.1483 114.647C88.44 116.959 90.3138 118.969 92.6208 120.517C94.9278 122.064 97.6044 123.106 100.438 123.561C94.5307 123.073 89.3958 120.352 87.1483 114.647Z" fill="#263238"/>
<path d="M128.235 149.772C128.235 149.772 134.08 138.087 141.386 137.298C149.109 136.46 151.822 148.997 146.952 154.627C141.274 161.226 131.519 159.631 131.519 159.631L128.235 149.772Z" fill="#F7A9A0"/>
<path d="M139.695 144.88C140.722 143.893 141.879 143.021 143.139 142.284C143.285 142.202 143.139 141.977 142.986 142.046C137.628 144.473 133.008 150.103 134.323 155.734C134.332 155.775 134.356 155.813 134.393 155.84C134.429 155.867 134.474 155.881 134.522 155.881C134.569 155.881 134.614 155.867 134.65 155.84C134.687 155.813 134.711 155.775 134.72 155.734C134.817 155.214 134.908 154.708 135.005 154.201C135.854 152.75 136.619 151.436 138.129 150.372C139.575 149.347 141.305 148.698 143.132 148.496C143.348 148.496 143.292 148.202 143.083 148.202C141.659 148.231 140.259 148.533 138.975 149.088C137.691 149.642 136.554 150.436 135.638 151.417C136 150.102 136.565 148.839 137.315 147.664C137.994 146.64 138.792 145.684 139.695 144.811" fill="#263238"/>
<path d="M133.099 159.3C133.091 159.303 133.085 159.307 133.08 159.314C133.076 159.32 133.074 159.327 133.074 159.334C133.074 159.342 133.076 159.349 133.08 159.355C133.085 159.361 133.091 159.366 133.099 159.369C133.106 159.366 133.113 159.361 133.117 159.355C133.122 159.349 133.124 159.342 133.124 159.334C133.124 159.327 133.122 159.32 133.117 159.314C133.113 159.307 133.106 159.303 133.099 159.3Z" fill="#263238"/>
<path d="M144.336 165.611C144.809 167.369 148.608 160.05 148.608 159.099C148.608 158.148 151.635 154.601 152.087 152.631C152.539 150.66 152.887 145.124 152.657 143.873C152.428 142.622 153.931 138.968 153.235 136.848C152.539 134.727 145.519 115.997 127.282 106.945C109.045 97.8934 96.2006 100.339 96.2006 100.339C89.5924 101.108 83.097 102.521 76.8297 104.556C66.6989 107.884 58.8294 133.532 58.9477 134.02C59.066 134.508 60.2349 135.803 60.1723 137.235C60.1097 138.668 58.9616 140.438 60.1723 141.483C61.383 142.528 60.3393 146.294 60.7985 147.632C61.2578 148.971 61.7657 149.209 61.7935 150.191C61.8214 151.173 59.073 126.332 88.0528 109.892C88.0528 109.892 134.094 127.871 144.336 165.611Z" fill="#F4AE59"/>
<path d="M61.7657 149.941C61.7769 150.031 61.7769 150.121 61.7657 150.21C61.7935 150.291 61.7796 150.198 61.7657 149.941Z" fill="#F4AE59"/>
<path d="M61.7657 149.941C61.7764 150.031 61.7764 150.121 61.7657 150.21C61.7935 150.291 61.7796 150.198 61.7657 149.941Z" fill="#F4AE59"/>
<path opacity="0.3" d="M68.4244 121.734C68.4444 122.329 68.2277 122.911 67.8134 123.375C67.3991 123.839 66.8143 124.156 66.1639 124.267C65.5136 124.379 64.8403 124.278 64.2651 123.984C63.6898 123.689 63.2501 123.22 63.0251 122.66C63.4773 121.603 63.9714 120.527 64.4932 119.438C64.9196 119.265 65.3878 119.19 65.8546 119.223C66.3213 119.255 66.7714 119.392 67.1633 119.623C67.5552 119.853 67.8763 120.168 68.0967 120.539C68.3171 120.91 68.4299 121.326 68.4244 121.747V121.734ZM78.4161 113.852C77.6779 113.852 76.97 114.115 76.4481 114.585C75.9261 115.054 75.6329 115.69 75.6329 116.354C75.629 116.707 75.7082 117.057 75.8653 117.38C76.0224 117.704 76.2538 117.993 76.5444 118.231C77.7968 117.074 79.1536 115.929 80.6217 114.809C80.3596 114.509 80.0246 114.266 79.6423 114.101C79.26 113.935 78.8406 113.85 78.4161 113.852ZM64.5976 131.086C63.8594 131.045 63.1332 131.269 62.5786 131.709C62.0241 132.149 61.6866 132.769 61.6404 133.432C61.5943 134.096 61.8433 134.749 62.3326 135.247C62.8219 135.746 63.5115 136.049 64.2497 136.091C64.8269 134.553 65.4934 133.043 66.2466 131.568C65.7696 131.251 65.1908 131.082 64.5976 131.086ZM114.41 102.029C114.172 102.411 114.049 102.842 114.055 103.28C113.992 103.943 114.225 104.602 114.703 105.111C115.18 105.621 115.863 105.938 116.601 105.995C117.339 106.051 118.072 105.842 118.639 105.412C119.205 104.983 119.558 104.369 119.621 103.705C117.798 103.017 116.059 102.479 114.41 102.029ZM122.843 121.734C122.292 121.734 121.754 121.881 121.296 122.156C120.839 122.431 120.482 122.821 120.271 123.279C120.061 123.736 120.006 124.239 120.113 124.724C120.22 125.21 120.485 125.656 120.875 126.006C121.264 126.356 121.76 126.594 122.3 126.69C122.84 126.787 123.399 126.737 123.908 126.548C124.416 126.359 124.851 126.038 125.157 125.626C125.463 125.215 125.626 124.731 125.626 124.236C125.626 123.573 125.333 122.936 124.811 122.467C124.289 121.998 123.581 121.734 122.843 121.734ZM83.6415 102.635C82.0203 103.036 80.3017 103.499 78.5483 104.037C78.5483 104.7 78.8415 105.337 79.3634 105.806C79.8854 106.275 80.5933 106.539 81.3315 106.539C82.0696 106.539 82.7775 106.275 83.2995 105.806C83.8214 105.337 84.1146 104.7 84.1146 104.037C84.1138 103.537 83.9466 103.049 83.6345 102.635H83.6415ZM97.6478 103.261C97.0974 103.261 96.5593 103.408 96.1016 103.683C95.6439 103.958 95.2872 104.348 95.0765 104.806C94.8659 105.263 94.8108 105.766 94.9181 106.251C95.0255 106.737 95.2906 107.183 95.6798 107.533C96.0691 107.883 96.565 108.121 97.1049 108.217C97.6448 108.314 98.2044 108.264 98.7129 108.075C99.2215 107.886 99.6562 107.565 99.962 107.153C100.268 106.742 100.431 106.258 100.431 105.763C100.432 105.434 100.36 105.107 100.221 104.802C100.081 104.498 99.8751 104.221 99.6159 103.988C99.3566 103.754 99.0486 103.57 98.7097 103.444C98.3708 103.318 98.0076 103.254 97.6409 103.255L97.6478 103.261ZM109.066 112.932C108.515 112.932 107.977 113.079 107.52 113.354C107.062 113.629 106.705 114.02 106.495 114.477C106.284 114.934 106.229 115.437 106.336 115.923C106.444 116.408 106.709 116.854 107.098 117.204C107.487 117.554 107.983 117.792 108.523 117.889C109.063 117.985 109.622 117.936 110.131 117.746C110.639 117.557 111.074 117.236 111.38 116.825C111.686 116.413 111.849 115.929 111.849 115.435C111.85 115.105 111.778 114.778 111.639 114.474C111.499 114.169 111.293 113.892 111.034 113.659C110.775 113.426 110.467 113.241 110.128 113.115C109.789 112.989 109.426 112.925 109.059 112.926L109.066 112.932ZM130.086 110.43C129.535 110.43 128.997 110.577 128.54 110.852C128.082 111.127 127.725 111.517 127.514 111.975C127.304 112.432 127.249 112.935 127.356 113.42C127.464 113.906 127.729 114.352 128.118 114.702C128.507 115.052 129.003 115.29 129.543 115.386C130.083 115.483 130.642 115.433 131.151 115.244C131.659 115.055 132.094 114.734 132.4 114.322C132.706 113.911 132.869 113.427 132.869 112.932C132.872 112.602 132.802 112.274 132.663 111.967C132.523 111.661 132.318 111.383 132.059 111.149C131.799 110.914 131.491 110.728 131.151 110.602C130.811 110.475 130.447 110.41 130.079 110.411L130.086 110.43ZM136.16 128.784C135.61 128.784 135.072 128.931 134.614 129.206C134.156 129.481 133.799 129.872 133.589 130.329C133.378 130.786 133.323 131.289 133.43 131.775C133.538 132.26 133.803 132.706 134.192 133.056C134.581 133.406 135.077 133.644 135.617 133.741C136.157 133.837 136.717 133.788 137.225 133.598C137.734 133.409 138.168 133.088 138.474 132.677C138.78 132.265 138.943 131.781 138.943 131.286C138.946 130.956 138.876 130.628 138.737 130.322C138.598 130.015 138.393 129.737 138.133 129.503C137.874 129.268 137.565 129.082 137.225 128.956C136.885 128.829 136.521 128.765 136.153 128.765L136.16 128.784ZM142.749 156.597C142.219 156.595 141.699 156.732 141.253 156.991C141.949 158.492 142.541 160.038 143.083 161.614C143.821 161.574 144.512 161.272 145.002 160.775C145.493 160.278 145.744 159.625 145.699 158.962C145.655 158.298 145.319 157.677 144.766 157.236C144.213 156.795 143.487 156.57 142.749 156.61V156.597ZM130.079 138.843C129.861 138.844 129.644 138.867 129.432 138.912C130.489 140.109 131.512 141.341 132.5 142.609C132.749 142.23 132.879 141.798 132.876 141.358C132.878 141.027 132.807 140.7 132.667 140.394C132.527 140.088 132.321 139.81 132.061 139.576C131.801 139.342 131.492 139.157 131.151 139.031C130.811 138.906 130.447 138.842 130.079 138.843ZM142.958 119.451C142.586 119.602 142.255 119.826 141.99 120.105C141.724 120.384 141.53 120.713 141.422 121.067C141.314 121.421 141.293 121.793 141.363 122.155C141.432 122.517 141.589 122.861 141.823 123.162C142.057 123.464 142.362 123.715 142.716 123.898C143.07 124.082 143.464 124.193 143.872 124.224C144.279 124.255 144.689 124.205 145.072 124.077C145.455 123.949 145.802 123.747 146.089 123.486C145.15 122.122 144.106 120.764 142.958 119.407V119.451ZM144.037 141.84C143.486 141.84 142.948 141.987 142.49 142.262C142.033 142.536 141.676 142.927 141.465 143.385C141.255 143.842 141.199 144.345 141.307 144.83C141.414 145.316 141.679 145.762 142.069 146.111C142.458 146.461 142.954 146.7 143.494 146.796C144.033 146.893 144.593 146.843 145.102 146.654C145.61 146.465 146.045 146.144 146.351 145.732C146.656 145.321 146.82 144.837 146.82 144.342C146.826 144.01 146.759 143.68 146.622 143.371C146.485 143.062 146.281 142.781 146.022 142.544C145.763 142.307 145.454 142.119 145.113 141.991C144.772 141.862 144.406 141.796 144.037 141.796V141.84ZM151.482 148.583C151.481 148.938 151.565 149.289 151.727 149.613C151.889 149.936 152.125 150.225 152.421 150.46C152.553 149.209 152.657 147.751 152.706 146.513C152.336 146.738 152.032 147.039 151.819 147.392C151.605 147.745 151.49 148.138 151.482 148.54V148.583ZM150.855 131.393C150.492 131.43 150.141 131.531 149.821 131.69C149.501 131.849 149.219 132.063 148.991 132.32C148.764 132.577 148.594 132.872 148.493 133.188C148.392 133.504 148.362 133.834 148.403 134.161C148.444 134.488 148.556 134.804 148.733 135.091C148.91 135.379 149.148 135.632 149.434 135.837C149.72 136.042 150.048 136.194 150.399 136.285C150.751 136.375 151.118 136.403 151.482 136.366C151.973 136.363 152.454 136.24 152.873 136.01C152.532 134.971 151.864 133.351 150.855 131.337V131.393Z" fill="white"/>
<path opacity="0.1" d="M148.587 159.099C148.266 157.338 147.753 155.61 147.056 153.938C146.43 152.243 145.741 150.573 145.039 148.903C143.647 145.568 142.186 142.24 140.585 138.981C140.189 138.168 139.799 137.336 139.347 136.566C138.837 135.829 138.238 135.145 137.559 134.527C136.223 133.226 134.776 132.025 133.335 130.774C131.895 129.522 130.427 128.34 128.952 127.145L124.526 123.554C127.667 125.752 130.724 128.046 133.697 130.436C135.193 131.618 136.64 132.85 138.025 134.152C138.751 134.798 139.391 135.518 139.931 136.297C140.418 137.104 140.815 137.924 141.219 138.743C142.777 142.038 144.217 145.374 145.54 148.752C146.187 150.448 146.82 152.143 147.376 153.857C147.655 154.72 147.919 155.584 148.142 156.459C148.39 157.323 148.539 158.208 148.587 159.099Z" fill="#050400"/>
<path opacity="0.1" d="M135.416 124.249C139.403 126.592 143.021 129.407 146.173 132.619C147.768 134.225 149.167 135.981 150.347 137.855C151.533 139.721 152.327 141.768 152.692 143.892C152.511 143.379 152.337 142.872 152.177 142.365C152.1 142.109 151.995 141.859 151.864 141.621L151.516 140.895C151.398 140.651 151.301 140.407 151.175 140.17L150.758 139.469C150.466 139.012 150.229 138.531 149.888 138.093L148.935 136.766L147.891 135.484C147.557 135.052 147.195 134.652 146.806 134.233C146.416 133.814 146.075 133.407 145.672 133.019C144.138 131.422 142.512 129.898 140.801 128.453C139.952 127.714 139.076 127.008 138.178 126.307C137.28 125.606 136.334 124.924 135.416 124.249Z" fill="#050400"/>
<path opacity="0.1" d="M60.1724 136.091C60.6685 134.106 61.3672 132.167 62.2597 130.298C63.0808 128.422 63.9853 126.545 64.9177 124.712C65.8324 122.85 66.8519 121.032 67.9722 119.263C69.1813 117.535 70.6705 115.979 72.3905 114.646C71.6313 115.391 70.9204 116.174 70.2614 116.992C69.5888 117.788 68.9774 118.624 68.4315 119.495C67.9026 120.37 67.4365 121.284 66.9633 122.203L65.5717 124.956L62.7886 130.473C62.3154 131.393 61.8701 132.35 61.397 133.251C60.9227 134.174 60.5137 135.122 60.1724 136.091Z" fill="#050400"/>
<path opacity="0.1" d="M60.6316 142.328C60.8329 140.877 61.1397 139.439 61.55 138.024C61.9315 136.602 62.396 135.199 62.9416 133.82C63.2228 133.124 63.5481 132.443 63.9157 131.781C64.3123 131.155 64.6881 130.499 65.1056 129.867L66.3162 127.99C66.7476 127.364 67.1512 126.739 67.5965 126.113C67.2904 126.789 66.9425 127.452 66.6224 128.121L65.5787 130.092C65.2378 130.755 64.8829 131.399 64.5072 132.05C64.1647 132.698 63.8605 133.362 63.5957 134.039C63.0321 135.397 62.545 136.779 62.0371 138.162C61.7866 138.85 61.5431 139.544 61.3065 140.245C61.0839 140.927 60.8612 141.627 60.6316 142.328Z" fill="#050400"/>
<path opacity="0.1" d="M123.538 105.238C118.897 108.666 108.231 116.373 105.385 116.905C104.412 117.05 103.428 117.129 102.442 117.142C97.8586 114.399 93.0482 111.975 88.0528 109.892C84.6754 111.79 81.5048 113.971 78.583 116.404C75.0223 115.426 71.5702 114.153 68.2714 112.601C70.7901 108.735 73.6916 105.601 76.8088 104.575C83.0761 102.54 89.5714 101.127 96.1797 100.358C96.1797 100.358 107.305 98.2502 123.538 105.238Z" fill="#050400"/>
<path d="M88.2407 104.18C88.2407 104.18 73.5595 94.703 58.4607 98.6504C58.4607 98.6504 65.0081 111.287 72.0426 113.614C75.5216 114.771 87.2388 111.412 87.7745 109.235C88.12 107.569 88.2762 105.875 88.2407 104.18Z" fill="#F4AE59"/>
<path opacity="0.3" d="M72.648 98.2878C72.3845 98.7361 71.9757 99.1019 71.4757 99.3367C70.9758 99.5715 70.4083 99.6641 69.8484 99.6024C69.2886 99.5407 68.7628 99.3275 68.3408 98.991C67.9188 98.6546 67.6204 98.2108 67.4852 97.7185C69.2203 97.7837 70.9468 97.974 72.648 98.2878ZM65.69 106.42C65.0398 106.419 64.4095 106.623 63.9088 106.996C64.9877 108.367 66.1933 109.654 67.513 110.843C67.815 110.611 68.0581 110.323 68.2262 109.999C68.3942 109.676 68.4832 109.323 68.4871 108.966C68.4945 108.635 68.4287 108.306 68.2934 107.998C68.1582 107.689 67.9562 107.409 67.6992 107.171C67.4423 106.934 67.1354 106.744 66.7965 106.615C66.4576 106.485 66.0933 106.416 65.7248 106.414L65.69 106.42ZM81.2967 101.547C80.7463 101.547 80.2082 101.694 79.7505 101.969C79.2928 102.244 78.9361 102.634 78.7254 103.092C78.5148 103.549 78.4596 104.052 78.567 104.537C78.6744 105.023 78.9395 105.469 79.3287 105.819C79.718 106.169 80.2139 106.407 80.7538 106.503C81.2936 106.6 81.8533 106.55 82.3618 106.361C82.8704 106.172 83.305 105.851 83.6109 105.439C83.9167 105.028 84.0799 104.544 84.0799 104.049C84.0818 103.39 83.7942 102.757 83.2795 102.287C82.7649 101.817 82.0648 101.549 81.3315 101.541L81.2967 101.547Z" fill="white"/>
<path opacity="0.1" d="M88.2477 104.187C88.2694 105.865 88.1109 107.541 87.7746 109.191C87.7599 109.294 87.7142 109.392 87.6424 109.473C87.5848 109.589 87.5047 109.695 87.4058 109.786C87.3293 109.842 87.2667 109.917 87.1623 109.992C86.0838 110.924 83.6833 111.9 81.0602 112.632C80.4996 110.614 80.1502 108.553 80.0165 106.476C79.9678 104.856 81.2619 102.948 82.6814 101.328C84.6242 102.136 86.4864 103.093 88.2477 104.187Z" fill="#050400"/>
<path d="M92.5825 104.618C92.5825 104.618 111.369 94.2903 122.836 94.5718C122.836 94.5718 121.945 105.957 112.976 112.088C108.962 114.822 92.3598 112.426 92.1024 110.036C91.9814 108.219 92.143 106.395 92.5825 104.618Z" fill="#F4AE59"/>
<path opacity="0.3" d="M119.656 103.255C119.656 103.75 119.493 104.233 119.187 104.645C118.881 105.056 118.446 105.377 117.938 105.567C117.429 105.756 116.87 105.805 116.33 105.709C115.79 105.612 115.294 105.374 114.905 105.024C114.515 104.674 114.25 104.228 114.143 103.743C114.036 103.257 114.091 102.754 114.301 102.297C114.512 101.84 114.869 101.449 115.326 101.174C115.784 100.899 116.322 100.752 116.873 100.752C117.611 100.752 118.319 101.016 118.841 101.485C119.363 101.955 119.656 102.591 119.656 103.255ZM97.6408 103.255C97.0904 103.255 96.5523 103.401 96.0946 103.676C95.6369 103.951 95.2802 104.342 95.0695 104.799C94.8589 105.257 94.8038 105.76 94.9111 106.245C95.0185 106.731 95.2836 107.176 95.6728 107.526C96.0621 107.876 96.558 108.115 97.0979 108.211C97.6378 108.308 98.1974 108.258 98.7059 108.069C99.2145 107.879 99.6492 107.559 99.955 107.147C100.261 106.736 100.424 106.252 100.424 105.757C100.424 105.093 100.131 104.457 99.6089 103.988C99.0869 103.518 98.379 103.255 97.6408 103.255ZM109.059 112.926C108.583 112.924 108.116 113.034 107.702 113.245C108.437 113.215 109.168 113.146 109.894 113.039C109.623 112.963 109.342 112.925 109.059 112.926Z" fill="white"/>
<path opacity="0.1" d="M96.9173 102.404C98.0654 103.943 99.3804 106.264 99.3387 108.509C99.2356 109.893 98.8063 111.24 98.0793 112.463C94.7465 111.837 92.2068 110.924 92.0816 109.961C91.9751 108.155 92.1436 106.345 92.5825 104.581C92.5825 104.581 94.2524 103.686 96.9173 102.404Z" fill="#050400"/>
<path d="M96.5832 107.915C96.4656 109.181 95.9332 110.387 95.0533 111.381C94.1733 112.375 92.9854 113.112 91.6396 113.5C90.2938 113.887 88.8505 113.906 87.4923 113.556C86.134 113.206 84.9218 112.501 84.0087 111.532C83.0956 110.562 82.5228 109.371 82.3625 108.109C82.2023 106.847 82.4618 105.57 83.1084 104.441C83.7549 103.311 84.7594 102.379 85.995 101.763C87.2305 101.146 88.6415 100.873 90.0497 100.978C91.939 101.119 93.6885 101.93 94.9136 103.231C96.1387 104.531 96.7392 106.216 96.5832 107.915Z" fill="#F4AE59"/>
</svg>
