<svg width="24" height="24" viewBox="0 0 24 24" fill="none" xmlns="http://www.w3.org/2000/svg">
<g id="Group">
<g id="Clip path group">
<mask id="mask0_180_239" style="mask-type:luminance" maskUnits="userSpaceOnUse" x="0" y="0" width="24" height="24">
<g id="B">
<path id="Vector" d="M23.5568 9.81819H12.375V14.4546H18.8114C18.2114 17.4 15.7023 19.0909 12.375 19.0909C8.44773 19.0909 5.28409 15.9273 5.28409 12C5.28409 8.07273 8.44773 4.90909 12.375 4.90909C14.0659 4.90909 15.5932 5.50909 16.7932 6.49091L20.2841 3C18.1568 1.14545 15.4296 0 12.375 0C5.72046 0 0.375 5.34546 0.375 12C0.375 18.6546 5.72046 24 12.375 24C18.375 24 23.8296 19.6364 23.8296 12C23.8296 11.2909 23.7205 10.5273 23.5568 9.81819Z" fill="white"/>
</g>
</mask>
<g mask="url(#mask0_180_239)">
<path id="Vector_2" d="M-0.71582 19.0909V4.90906L8.55691 12L-0.71582 19.0909Z" fill="#FBBC05"/>
</g>
</g>
<g id="Clip path group_2">
<mask id="mask1_180_239" style="mask-type:luminance" maskUnits="userSpaceOnUse" x="0" y="0" width="24" height="24">
<g id="B_2">
<path id="Vector_3" d="M23.5568 9.81819H12.375V14.4546H18.8114C18.2114 17.4 15.7023 19.0909 12.375 19.0909C8.44773 19.0909 5.28409 15.9273 5.28409 12C5.28409 8.07273 8.44773 4.90909 12.375 4.90909C14.0659 4.90909 15.5932 5.50909 16.7932 6.49091L20.2841 3C18.1568 1.14545 15.4296 0 12.375 0C5.72046 0 0.375 5.34546 0.375 12C0.375 18.6546 5.72046 24 12.375 24C18.375 24 23.8296 19.6364 23.8296 12C23.8296 11.2909 23.7205 10.5273 23.5568 9.81819Z" fill="white"/>
</g>
</mask>
<g mask="url(#mask1_180_239)">
<path id="Vector_4" d="M-0.71582 4.90906L8.55691 12L12.3751 8.6727L25.466 6.54542V-1.09094H-0.71582V4.90906Z" fill="#EA4335"/>
</g>
</g>
<g id="Clip path group_3">
<mask id="mask2_180_239" style="mask-type:luminance" maskUnits="userSpaceOnUse" x="0" y="0" width="24" height="24">
<g id="B_3">
<path id="Vector_5" d="M23.5568 9.81819H12.375V14.4546H18.8114C18.2114 17.4 15.7023 19.0909 12.375 19.0909C8.44773 19.0909 5.28409 15.9273 5.28409 12C5.28409 8.07273 8.44773 4.90909 12.375 4.90909C14.0659 4.90909 15.5932 5.50909 16.7932 6.49091L20.2841 3C18.1568 1.14545 15.4296 0 12.375 0C5.72046 0 0.375 5.34546 0.375 12C0.375 18.6546 5.72046 24 12.375 24C18.375 24 23.8296 19.6364 23.8296 12C23.8296 11.2909 23.7205 10.5273 23.5568 9.81819Z" fill="white"/>
</g>
</mask>
<g mask="url(#mask2_180_239)">
<path id="Vector_6" d="M-0.71582 19.0909L15.6478 6.54542L19.9569 7.09088L25.466 -1.09094V25.0909H-0.71582V19.0909Z" fill="#34A853"/>
</g>
</g>
<g id="Clip path group_4">
<mask id="mask3_180_239" style="mask-type:luminance" maskUnits="userSpaceOnUse" x="0" y="0" width="24" height="24">
<g id="B_4">
<path id="Vector_7" d="M12.375 0.5C15.1064 0.5 17.5654 1.45578 19.543 3.0332L16.748 5.82812C15.5236 4.94251 14.022 4.40918 12.375 4.40918C8.17159 4.40918 4.78418 7.79659 4.78418 12C4.78418 16.2034 8.17159 19.5908 12.375 19.5908C15.8777 19.5908 18.6428 17.7888 19.3018 14.5547L19.4238 13.9541H12.875V10.3184H23.1494C23.2594 10.8833 23.3291 11.4623 23.3291 12C23.3291 19.3449 18.1144 23.5 12.375 23.5C5.9966 23.5 0.875 18.3784 0.875 12C0.875002 5.6216 5.9966 0.500003 12.375 0.5Z" fill="white" stroke="white"/>
</g>
</mask>
<g mask="url(#mask3_180_239)">
<path id="Vector_8" d="M25.4659 25.0909L8.55682 12L6.375 10.3636L25.4659 4.90906V25.0909Z" fill="#4285F4"/>
</g>
</g>
</g>
</svg>
